<svg width="32" height="32" viewBox="0 0 32 32" fill="none" xmlns="http://www.w3.org/2000/svg">
<path d="M27.5221 14.2176H27V8.16495C27 6.41983 25.5802 5 23.835 5H8.16501C6.41984 5 5.00007 6.41983 5.00007 8.16495V14.2176H4.47787C2.7327 14.2176 1.31293 15.6374 1.31293 17.3826V26.1394C1.31293 26.6147 1.69823 27 2.1735 27C2.64876 27 3.03407 26.6147 3.03407 26.1394V25.1564H28.9659V26.1394C28.9659 26.6147 29.3512 27 29.8265 27C30.3017 27 30.687 26.6147 30.687 26.1394V17.3826C30.687 15.6374 29.2673 14.2176 27.5221 14.2176ZM6.72121 8.16495C6.72121 7.36886 7.36887 6.72114 8.16501 6.72114H23.835C24.6312 6.72114 25.2789 7.36886 25.2789 8.16495V14.2176H22.0412C22.2715 13.7712 22.3916 13.2761 22.3912 12.7738V11.852C22.3912 10.1069 20.9714 8.68708 19.2263 8.68708H12.7739C11.0286 8.68708 9.60882 10.1069 9.60882 11.852V12.7738C9.60848 13.2761 9.72849 13.7712 9.95879 14.2176H6.72121V8.16495ZM11.33 12.7738V11.852C11.33 11.0559 11.9777 10.4082 12.7739 10.4082H19.2263C20.0224 10.4082 20.6701 11.0559 20.6701 11.852V12.7738C20.6701 13.5699 20.0224 14.2176 19.2263 14.2176H12.7739C11.9777 14.2176 11.33 13.5699 11.33 12.7738ZM4.47787 15.9388H27.5222C28.3183 15.9388 28.966 16.5865 28.966 17.3826V19.7482H3.03407V17.3826C3.03407 16.5865 3.68173 15.9388 4.47787 15.9388ZM3.03407 21.4694H28.9659V23.4353H3.03407V21.4694Z" fill="#798090"/>
</svg>
