<svg xmlns="http://www.w3.org/2000/svg" width="20" height="21"
                                                        viewBox="0 0 20 21" fill="none">
                                                        <path
                                                            d="M19.9675 13.4958C19.9983 13.4133 20.0092 13.3225 19.9808 13.2308L18.3333 7.87668V2.93672C18.3333 1.78839 17.3992 0.853394 16.25 0.853394H3.75C2.60082 0.853394 1.66668 1.78839 1.66668 2.93672V7.87671L0.0191797 13.2308C-0.00914067 13.3217 0.00167969 13.4125 0.0325 13.4958C0.0125 13.5842 0 13.675 0 13.77V17.1033V18.77C0 19 0.18668 19.1867 0.41668 19.1867H2.08336C2.31332 19.1867 2.5 19 2.5 18.77V17.52H17.5V18.77C17.5 19 17.6867 19.1867 17.9167 19.1867H19.5833C19.8133 19.1867 20 19 20 18.77V17.1033V13.77C20 13.675 19.9875 13.5842 19.9675 13.4958ZM2.5 2.93672C2.5 2.24754 3.06082 1.68672 3.75 1.68672H16.25C16.9392 1.68672 17.5 2.24754 17.5 2.93672V7.52004H16.3675L15.9792 5.96671C15.8392 5.40921 15.34 5.02004 14.7658 5.02004H12.0833C11.3942 5.02004 10.8333 5.58085 10.8333 6.27004V7.52004H9.16667V6.27085C9.16667 5.58168 8.60583 5.02085 7.91664 5.02085H5.23414C4.65996 5.02085 4.16082 5.41085 4.02082 5.96754L3.6325 7.52004H2.5V2.93672ZM15.5117 8.19335C15.4317 8.29504 15.3117 8.35334 15.1825 8.35334H12.0833C11.8542 8.35334 11.6667 8.16668 11.6667 7.93668V6.27004C11.6667 6.04004 11.8542 5.85335 12.0833 5.85335H14.7667C14.9583 5.85335 15.1242 5.98254 15.1708 6.16835L15.5875 7.83504C15.6192 7.96085 15.5917 8.09085 15.5117 8.19335ZM8.33417 6.27004V7.93254C8.33417 7.93421 8.33333 7.93504 8.33333 7.93671C8.33333 7.93754 8.33333 7.93839 8.33333 7.93839C8.33254 8.16758 8.14586 8.35343 7.91754 8.35343H4.81836C4.68836 8.35343 4.56918 8.29508 4.48918 8.19339C4.40918 8.09089 4.38168 7.96008 4.41336 7.83508L4.83004 6.16839C4.87672 5.98339 5.04254 5.85339 5.23504 5.85339H7.91754C8.14668 5.85335 8.33417 6.04004 8.33417 6.27004ZM2.39082 8.35334H3.645C3.68918 8.47834 3.74668 8.59834 3.83082 8.70668C4.07082 9.01168 4.43 9.18668 4.8175 9.18668H7.91668C8.45917 9.18668 8.9175 8.83668 9.09 8.35334H10.91C11.0825 8.83751 11.5408 9.18668 12.0833 9.18668H15.1825C15.57 9.18668 15.9283 9.01168 16.1683 8.70668C16.2525 8.59918 16.31 8.47834 16.3542 8.35334H17.6092L18.8958 12.535C18.8475 12.5292 18.8 12.52 18.75 12.52H1.25C1.2 12.52 1.1525 12.5292 1.105 12.535L2.39082 8.35334ZM1.66668 18.3533H0.83332V17.52H1.66664L1.66668 18.3533ZM19.1667 18.3533H18.3333V17.52H19.1667V18.3533ZM19.1667 16.6867H0.83332V13.77C0.83332 13.54 1.02082 13.3533 1.25 13.3533H18.75C18.9792 13.3533 19.1667 13.54 19.1667 13.77V16.6867Z"
                                                            fill="#1E84FE" />
                                                    </svg>