<svg width="20" height="20" viewBox="0 0 20 20" fill="none" xmlns="http://www.w3.org/2000/svg">
<path fill-rule="evenodd" clip-rule="evenodd" d="M9.37039 3.72375H6.24914V3.15437C6.24914 2.98861 6.18329 2.82964 6.06608 2.71243C5.94887 2.59522 5.7899 2.52937 5.62414 2.52937C5.45838 2.52937 5.29941 2.59522 5.1822 2.71243C5.06499 2.82964 4.99914 2.98861 4.99914 3.15437V3.72375H4.36914C3.87186 3.72375 3.39495 3.92129 3.04332 4.27292C2.69168 4.62456 2.49414 5.10147 2.49414 5.59875V15.6281C2.49414 16.1254 2.69168 16.6023 3.04332 16.9539C3.39495 17.3056 3.87186 17.5031 4.36914 17.5031H15.6216C16.1191 17.5031 16.596 17.3056 16.9473 16.9537C17.1215 16.7798 17.2597 16.5731 17.354 16.3457C17.4482 16.1182 17.4967 15.8744 17.4966 15.6281V5.59875C17.4966 5.10125 17.2991 4.62437 16.9473 4.27312C16.7733 4.09889 16.5666 3.96069 16.3392 3.86642C16.1117 3.77215 15.8679 3.72367 15.6216 3.72375H14.9991V3.125C14.9991 2.95924 14.9333 2.80027 14.8161 2.68306C14.6989 2.56585 14.5399 2.5 14.3741 2.5C14.2084 2.5 14.0494 2.56585 13.9322 2.68306C13.815 2.80027 13.7491 2.95924 13.7491 3.125V3.72375H10.6204V3.125C10.6204 2.95924 10.5545 2.80027 10.4373 2.68306C10.3201 2.56585 10.1612 2.5 9.99539 2.5C9.82963 2.5 9.67066 2.56585 9.55345 2.68306C9.43624 2.80027 9.37039 2.95924 9.37039 3.125V3.72375ZM16.2466 8.75562V15.6281C16.2469 15.7103 16.2309 15.7917 16.1996 15.8676C16.1682 15.9435 16.1222 16.0125 16.0641 16.0706C16.006 16.1287 15.9371 16.1747 15.8611 16.2061C15.7852 16.2374 15.7038 16.2534 15.6216 16.2531H4.36914C4.287 16.2534 4.20561 16.2374 4.12967 16.2061C4.05373 16.1747 3.98473 16.1287 3.92665 16.0706C3.86856 16.0125 3.82253 15.9435 3.79121 15.8676C3.75989 15.7917 3.74389 15.7103 3.74414 15.6281V8.75562H16.2466ZM14.9991 4.97375V5.6225C14.9991 5.78826 14.9333 5.94723 14.8161 6.06444C14.6989 6.18165 14.5399 6.2475 14.3741 6.2475C14.2084 6.2475 14.0494 6.18165 13.9322 6.06444C13.815 5.94723 13.7491 5.78826 13.7491 5.6225V4.97375H10.6204V5.64875C10.6204 5.81451 10.5545 5.97348 10.4373 6.09069C10.3201 6.2079 10.1612 6.27375 9.99539 6.27375C9.82963 6.27375 9.67066 6.2079 9.55345 6.09069C9.43624 5.97348 9.37039 5.81451 9.37039 5.64875V4.97375H6.24914V5.64875C6.24914 5.81451 6.18329 5.97348 6.06608 6.09069C5.94887 6.2079 5.7899 6.27375 5.62414 6.27375C5.45838 6.27375 5.29941 6.2079 5.1822 6.09069C5.06499 5.97348 4.99914 5.81451 4.99914 5.64875V4.97375H4.36914C4.287 4.9735 4.20561 4.9895 4.12967 5.02082C4.05373 5.05214 3.98473 5.09817 3.92665 5.15626C3.86856 5.21434 3.82253 5.28334 3.79121 5.35928C3.75989 5.43522 3.74389 5.5166 3.74414 5.59875V7.50562H16.2466V5.59875C16.2469 5.5166 16.2309 5.43522 16.1996 5.35928C16.1682 5.28334 16.1222 5.21434 16.0641 5.15626C16.006 5.09817 15.9371 5.05214 15.8611 5.02082C15.7852 4.9895 15.7038 4.9735 15.6216 4.97375H14.9991Z" fill="#6A7283"/>
<path fill-rule="evenodd" clip-rule="evenodd" d="M5.625 10.6133H6.875V11.8633H5.625V10.6133ZM5.625 13.1245H6.875V14.3745H5.625V13.1245ZM8.125 10.6133H9.375V11.8633H8.125V10.6133ZM8.125 13.1245H9.375V14.3745H8.125V13.1245ZM10.625 10.6133H11.875V11.8633H10.625V10.6133ZM10.625 13.1245H11.875V14.3745H10.625V13.1245ZM13.125 10.6133H14.375V11.8633H13.125V10.6133ZM13.125 13.1245H14.375V14.3745H13.125V13.1245Z" fill="#6A7283"/>
</svg>
