<svg width="33" height="32" viewBox="0 0 33 32" fill="none" xmlns="http://www.w3.org/2000/svg">
<path d="M21.8337 3.99982V9.33315M11.167 3.99982V9.33315M5.83368 14.6665H27.167M5.83368 9.33315C5.83368 8.62591 6.11463 7.94763 6.61473 7.44753C7.11482 6.94744 7.7931 6.66648 8.50035 6.66648H24.5003C25.2076 6.66648 25.8859 6.94744 26.386 7.44753C26.8861 7.94763 27.167 8.62591 27.167 9.33315V25.3332C27.167 26.0404 26.8861 26.7187 26.386 27.2188C25.8859 27.7189 25.2076 27.9998 24.5003 27.9998H8.50035C7.7931 27.9998 7.11482 27.7189 6.61473 27.2188C6.11463 26.7187 5.83368 26.0404 5.83368 25.3332V9.33315ZM15.167 21.3332C15.167 21.6868 15.3075 22.0259 15.5575 22.276C15.8076 22.526 16.1467 22.6665 16.5003 22.6665C16.854 22.6665 17.1931 22.526 17.4432 22.276C17.6932 22.0259 17.8337 21.6868 17.8337 21.3332C17.8337 20.9795 17.6932 20.6404 17.4432 20.3903C17.1931 20.1403 16.854 19.9998 16.5003 19.9998C16.1467 19.9998 15.8076 20.1403 15.5575 20.3903C15.3075 20.6404 15.167 20.9795 15.167 21.3332Z" stroke="#798090" stroke-width="2" stroke-linecap="round" stroke-linejoin="round"/>
</svg>
