<svg width="57" height="56" viewBox="0 0 57 56" fill="none" xmlns="http://www.w3.org/2000/svg">
<path fill-rule="evenodd" clip-rule="evenodd" d="M24.8129 26.1608H17.9879C17.2942 26.1608 16.8613 26.468 16.6821 26.8608C16.6154 27.0119 16.5809 27.1753 16.5809 27.3405C16.5809 27.5058 16.6154 27.6692 16.6821 27.8203C16.8617 28.2141 17.2946 28.5203 17.9879 28.5203H24.8129C25.5066 28.5203 25.9395 28.2132 26.1188 27.8203C26.1855 27.6692 26.22 27.5058 26.22 27.3405C26.22 27.1753 26.1855 27.0119 26.1188 26.8608C25.9393 26.4676 25.5062 26.1608 24.8129 26.1608ZM18.5358 24.9662H24.2649C24.9586 24.9662 25.3915 24.6588 25.5708 24.2656C25.6374 24.1145 25.6718 23.9511 25.6718 23.7859C25.6718 23.6207 25.6374 23.4573 25.5708 23.3062C25.3912 22.913 24.9583 22.6056 24.2649 22.6056H18.5354C17.8418 22.6056 17.4089 22.913 17.2296 23.3062C17.1629 23.4573 17.1284 23.6207 17.1284 23.7859C17.1284 23.9511 17.1629 24.1145 17.2296 24.2656C17.4092 24.6588 17.8421 24.9662 18.5354 24.9662H18.5358ZM18.8239 29.7159C18.1302 29.7159 17.6973 30.0231 17.518 30.4159C17.4514 30.5671 17.417 30.7305 17.417 30.8957C17.417 31.0609 17.4514 31.2243 17.518 31.3754C17.6977 31.7686 18.1305 32.0754 18.8239 32.0754H23.9771C24.6707 32.0754 25.1036 31.7682 25.2829 31.3754C25.3495 31.2243 25.384 31.0609 25.384 30.8957C25.384 30.7305 25.3495 30.5671 25.2829 30.4159C25.1033 30.0227 24.6704 29.7159 23.9771 29.7159H18.8235H18.8239ZM19.9285 33.2706C19.2349 33.2706 18.802 33.5778 18.6227 33.9706C18.5561 34.1217 18.5217 34.2851 18.5217 34.4503C18.5217 34.6155 18.5561 34.7789 18.6227 34.93C18.8023 35.3238 19.2352 35.6306 19.9285 35.6306H22.873C23.5667 35.6306 23.9996 35.3233 24.1789 34.93C24.2455 34.7789 24.2799 34.6155 24.2799 34.4503C24.2799 34.2851 24.2455 34.1217 24.1789 33.9706C23.9993 33.5768 23.5664 33.2706 22.873 33.2706H19.9279H19.9285ZM8.15816 21.886H3.95892C3.82346 21.8867 3.69377 21.9409 3.59798 22.0367C3.5022 22.1325 3.44804 22.2621 3.44727 22.3976V35.2661C3.44807 35.4016 3.50224 35.5312 3.59802 35.627C3.6938 35.7228 3.82348 35.7769 3.95892 35.7777H8.15816C8.2936 35.7769 8.42327 35.7227 8.51906 35.627C8.61486 35.5312 8.66906 35.4016 8.66992 35.2661V22.3974C8.66909 22.2619 8.6149 22.1323 8.5191 22.0365C8.42331 21.9407 8.29362 21.8865 8.15816 21.8857V21.886ZM6.48909 33.9472C6.44987 34.0149 6.3977 34.0742 6.33555 34.1218C6.27341 34.1693 6.2025 34.2042 6.12689 34.2243C6.05127 34.2445 5.97243 34.2495 5.89486 34.2392C5.81729 34.2289 5.74251 34.2034 5.6748 34.1642C5.60708 34.125 5.54775 34.0728 5.5002 34.0106C5.45265 33.9485 5.4178 33.8776 5.39765 33.802C5.3775 33.7263 5.37244 33.6475 5.38276 33.5699C5.39308 33.4924 5.41858 33.4176 5.4578 33.3499L5.51347 33.2537C5.55269 33.186 5.60486 33.1267 5.66701 33.0791C5.72916 33.0316 5.80006 32.9967 5.87567 32.9766C5.95129 32.9564 6.03013 32.9514 6.1077 32.9617C6.18527 32.972 6.26005 32.9975 6.32777 33.0367C6.39548 33.076 6.45481 33.1281 6.50236 33.1903C6.54992 33.2524 6.58476 33.3233 6.60491 33.3989C6.62506 33.4746 6.63012 33.5534 6.6198 33.631C6.60948 33.7085 6.58398 33.7833 6.54477 33.851L6.48909 33.9472ZM17.7636 13.8066C17.83 13.8741 17.892 13.9457 17.9495 14.0209C18.5672 14.8244 18.8945 16.2165 18.471 17.7269L17.3773 21.6284C16.8315 21.8516 16.3915 22.2748 16.1473 22.8116C16.0069 23.1172 15.9342 23.4496 15.9342 23.7859C15.9342 24.1222 16.0069 24.4546 16.1473 24.7602C16.243 24.9703 16.3694 25.1649 16.5225 25.3376C16.1167 25.578 15.7945 25.9372 15.5996 26.3666C15.4591 26.6722 15.3864 27.0046 15.3864 27.341C15.3864 27.6773 15.4591 28.0097 15.5996 28.3153C15.8267 28.8153 16.2247 29.2179 16.7221 29.4507C16.4936 29.7412 16.3373 30.0817 16.266 30.4444C16.1947 30.807 16.2105 31.1814 16.312 31.5368C16.4135 31.8921 16.5978 32.2184 16.8499 32.4887C17.1019 32.759 17.4145 32.9656 17.7619 33.0916C17.5227 33.4267 17.3761 33.8189 17.3371 34.2288C17.2981 34.6386 17.368 35.0514 17.5398 35.4256C17.5726 35.4965 17.6083 35.566 17.6477 35.6334H12.3147V35.6311C11.7771 35.6205 11.2495 35.483 10.7751 35.2297C10.4129 35.051 10.1002 34.7859 9.86452 34.458V23.5521C9.99281 23.4825 10.2087 23.3911 10.4078 23.3067C10.6268 23.2228 10.8379 23.1198 11.0388 22.9987C13.4065 21.4085 14.1869 19.1107 15.0482 16.5745C15.2427 16.0018 15.4414 15.4167 15.6436 14.8783C15.9855 13.9672 16.4 13.5229 16.802 13.4247C16.9837 13.3847 17.1736 13.4093 17.3391 13.4944C17.4803 13.564 17.6095 13.6558 17.7219 13.7661C17.7349 13.7801 17.7486 13.7936 17.7631 13.8066H17.7636ZM26.2817 29.3423C26.6859 29.1019 27.0067 28.7435 27.2011 28.3153C27.3415 28.0097 27.4142 27.6773 27.4142 27.341C27.4142 27.0046 27.3415 26.6722 27.2011 26.3666C27.0062 25.9372 26.684 25.578 26.2782 25.3377C26.4313 25.1649 26.5578 24.9703 26.6535 24.7602C26.7938 24.4546 26.8665 24.1222 26.8665 23.7859C26.8665 23.4496 26.7938 23.1172 26.6535 22.8116C26.3014 22.0408 25.5269 21.4354 24.3373 21.4116C24.7222 19.0262 25.92 16.8473 27.7277 15.244C29.5354 13.6408 31.8418 12.7119 34.256 12.6147C36.6703 12.5175 39.0439 13.258 40.9746 14.7107C42.9054 16.1634 44.2744 18.239 44.8498 20.5857C45.4252 22.9325 45.1715 25.4059 44.1318 27.587C43.092 29.7681 41.3302 31.5226 39.1448 32.5532C36.9593 33.5837 34.4848 33.827 32.1406 33.2418C29.7963 32.6566 27.7264 31.2788 26.2818 29.342L26.2817 29.3423ZM23.0712 38.2163L18.9623 48.3078L24.1948 45.3378C24.273 45.2935 24.3603 45.2674 24.45 45.2616C24.5397 45.2557 24.6295 45.2703 24.7128 45.3042C24.7961 45.338 24.8706 45.3903 24.9308 45.4571C24.991 45.5239 25.0353 45.6034 25.0603 45.6898L26.7305 51.4719L30.9086 41.2107C30.5647 40.9976 30.1951 40.8289 29.8088 40.7086C29.2256 40.5483 28.5089 40.5745 27.7951 40.6007C26.7066 40.6405 25.6239 40.6802 24.6971 40.1372C23.9442 39.6962 23.4798 38.9819 23.0712 38.2167V38.2163ZM38.423 41.2103L42.6011 51.4716L44.2713 45.6901C44.2963 45.6038 44.3405 45.5242 44.4007 45.4574C44.4609 45.3906 44.5354 45.3383 44.6187 45.3044C44.7019 45.2706 44.7918 45.256 44.8815 45.2618C44.9712 45.2677 45.0585 45.2938 45.1366 45.3381L50.369 48.3081L46.2603 38.217C45.8517 38.9819 45.3873 39.6961 44.6347 40.137C43.708 40.6799 42.6253 40.6402 41.5369 40.6005C40.823 40.5743 40.1062 40.5481 39.5228 40.7085C39.1364 40.8288 38.7668 40.9975 38.4229 41.2107L38.423 41.2103ZM37.332 40.4797C37.2631 40.5227 37.1943 40.5659 37.1255 40.6093C36.3103 41.1217 35.4832 41.6417 34.6658 41.6417C33.8485 41.6417 33.0216 41.1217 32.2065 40.6094L32 40.4798C31.9797 40.4653 31.9586 40.4521 31.9366 40.4402C31.3512 40.0763 30.7633 39.7368 30.1215 39.5604C29.3619 39.3515 28.5558 39.381 27.7531 39.4103C26.8369 39.4439 25.9256 39.4773 25.299 39.1103C24.6748 38.7446 24.2628 37.9348 23.8519 37.1274C23.7852 36.9961 23.7185 36.8649 23.6501 36.7346C24.0261 36.6489 24.3751 36.4717 24.6662 36.2187C24.9572 35.9658 25.1814 35.6449 25.3187 35.2846C25.4561 34.9243 25.5024 34.5356 25.4535 34.1531C25.4046 33.7706 25.2622 33.4061 25.0387 33.0919C25.3301 32.9871 25.5976 32.8251 25.8254 32.6153C26.0532 32.4056 26.2367 32.1524 26.3652 31.8706C26.4317 31.7248 26.4833 31.5727 26.5192 31.4166C28.3909 33.2457 30.8241 34.3913 33.4265 34.6686C36.0289 34.9458 38.6488 34.3387 40.8639 32.9449C43.0791 31.5512 44.7603 29.4521 45.6366 26.986C46.5129 24.52 46.5332 21.8307 45.6943 19.3517C44.8554 16.8726 43.206 14.7484 41.0122 13.3213C38.8184 11.8943 36.2079 11.2476 33.6016 11.4855C30.9954 11.7234 28.5451 12.8321 26.646 14.6328C24.7468 16.4334 23.5094 18.8212 23.1331 21.4112H18.6762L19.619 18.049C20.1434 16.1787 19.722 14.4126 18.932 13.3458C19.352 12.9184 19.9886 12.5944 20.6236 12.2713C21.3336 11.9104 22.0421 11.5495 22.5861 11.0057C23.1302 10.4618 23.4907 9.75309 23.8519 9.04314C24.2626 8.23562 24.6748 7.42592 25.2989 7.06028C25.9254 6.69333 26.8367 6.72669 27.753 6.76026C28.5557 6.78969 29.3618 6.81922 30.1215 6.6102C30.8618 6.40655 31.5305 5.98611 32.2063 5.5613C33.0215 5.04876 33.8486 4.52869 34.6658 4.52869C35.4831 4.52869 36.3101 5.04866 37.1251 5.56108C37.801 5.986 38.4697 6.40644 39.2103 6.61009C39.9698 6.819 40.776 6.78947 41.5787 6.76005C42.4949 6.72658 43.4062 6.69311 44.0327 7.06017C44.6569 7.42581 45.0689 8.23562 45.4797 9.04303C45.8407 9.75287 46.2016 10.4614 46.7455 11.0054C47.2895 11.5495 47.9981 11.9101 48.7081 12.2712C49.5155 12.682 50.3252 13.0942 50.6908 13.7183C51.0578 14.3448 51.0244 15.256 50.9909 16.1722C50.9615 16.975 50.932 17.7813 51.141 18.5409C51.3447 19.2813 51.7651 19.95 52.1899 20.6258C52.7023 21.441 53.2223 22.2681 53.2223 23.0852C53.2223 23.9024 52.7024 24.7295 52.19 25.5445C51.7651 26.2204 51.3447 26.8892 51.141 27.6297C50.9321 28.3893 50.9616 29.1954 50.991 29.9981C51.0246 30.9143 51.058 31.8256 50.6909 32.4522C50.3253 33.0764 49.5155 33.4885 48.7081 33.8993C47.9982 34.2602 47.2897 34.6211 46.7457 35.165C46.2016 35.7088 45.8411 36.4175 45.4799 37.1275C45.069 37.9349 44.657 38.7447 44.0329 39.1102C43.4064 39.4773 42.4951 39.4439 41.5789 39.4103C40.7762 39.381 39.9699 39.3515 39.2103 39.5605C38.5682 39.737 37.98 40.0767 37.3946 40.4409C37.3731 40.4526 37.3522 40.4656 37.3322 40.4798L37.332 40.4797ZM29.7328 24.4497L32.8229 27.1088C32.8823 27.1597 32.9512 27.1983 33.0256 27.2225C33.1 27.2467 33.1784 27.2561 33.2564 27.25C33.3344 27.2439 33.4104 27.2225 33.4802 27.187C33.5499 27.1515 33.6119 27.1027 33.6628 27.0432C33.6723 27.0323 33.6814 27.0207 33.6899 27.0091L39.666 19.8966C39.7163 19.8369 39.7543 19.7678 39.7779 19.6934C39.8015 19.619 39.8102 19.5406 39.8035 19.4628C39.7968 19.385 39.7748 19.3093 39.7389 19.24C39.7029 19.1707 39.6536 19.1092 39.5939 19.0589C39.5342 19.0086 39.4651 18.9706 39.3907 18.947C39.3162 18.9234 39.2379 18.9147 39.1601 18.9214C39.0823 18.9281 39.0066 18.9501 38.9373 18.9861C38.868 19.022 38.8064 19.0713 38.7561 19.131L33.1428 25.8125L30.5069 23.5447C30.4474 23.4939 30.3786 23.4552 30.3042 23.431C30.2298 23.4067 30.1514 23.3974 30.0734 23.4034C29.9954 23.4095 29.9194 23.4309 29.8496 23.4663C29.7799 23.5018 29.7178 23.5506 29.667 23.61C29.6161 23.6695 29.5775 23.7383 29.5532 23.8127C29.529 23.8871 29.5196 23.9655 29.5257 24.0435C29.5317 24.1215 29.5531 24.1975 29.5885 24.2673C29.624 24.337 29.6728 24.3991 29.7323 24.4499L29.7328 24.4497Z" fill="#1E84FE"/>
</svg>
