<svg width="57" height="56" viewBox="0 0 57 56" fill="none" xmlns="http://www.w3.org/2000/svg">
<path d="M12.3333 32.3529H27.75V48H15.25C13.65 48 12.3333 46.6988 12.3333 45.1176V32.3529ZM45.6667 32.3529V45.1176C45.6667 46.6988 44.35 48 42.75 48H30.25V32.3529H45.6667ZM9 22.8824V27C9 28.5812 10.3167 29.8824 11.9167 29.8824H27.75V20H11.9167C10.3167 20 9 21.3012 9 22.8824ZM46.0833 20H30.25V29.8824H46.0833C47.6833 29.8824 49 28.5812 49 27V22.8824C49 21.3012 47.6833 20 46.0833 20Z" fill="#1E84FE"/>
<path d="M28.3252 21C28.1349 20.9995 27.9469 20.9618 27.7739 20.8895C27.601 20.8172 27.4471 20.712 27.3228 20.5809C27.1984 20.4499 27.1065 20.2961 27.0532 20.1299C26.9999 19.9638 26.9864 19.7892 27.0138 19.6179C27.6677 15.6001 31.1196 8 39.5116 8C44.3015 8.00161 46 10.3544 46 12.3698C46 15.952 40.5155 21 28.3252 21ZM39.5116 10.4123C33.1805 10.4123 30.7767 15.8845 29.9796 18.554C34.9745 18.3418 38.1241 17.1927 39.9376 16.214C42.4527 14.856 43.3488 13.3372 43.3488 12.3682C43.3488 10.925 41.3674 10.4123 39.5116 10.4123Z" fill="#1E84FE"/>
<path d="M28.7447 21C17.1959 21 12 15.9514 12 12.3687C12 10.3531 13.6108 8 18.1487 8C26.0974 8 29.3676 15.601 29.9872 19.6193C30.0128 19.7905 29.9999 19.965 29.9493 20.1309C29.8986 20.2969 29.8115 20.4505 29.6937 20.5814C29.5759 20.7123 29.4303 20.8174 29.2666 20.8896C29.1028 20.9618 28.9249 20.9995 28.7447 21ZM18.1487 10.411C16.3905 10.411 14.5117 10.9253 14.5117 12.3687C14.5117 14.4212 18.2508 18.1615 27.1757 18.5553C26.4222 15.8839 24.145 10.411 18.1487 10.411Z" fill="#1E84FE"/>
</svg>
