<svg width="57" height="56" viewBox="0 0 57 56" fill="none" xmlns="http://www.w3.org/2000/svg">
<path d="M53.7321 29.9109C53.8132 31.8486 53.1224 33.7393 51.8112 35.1683C50.5 36.5973 48.6755 37.4479 46.738 37.5334C46.6247 37.5386 46.5116 37.5413 46.3987 37.5413C45.8839 37.5409 45.3706 37.4852 44.8677 37.3751C43.3756 39.679 41.419 41.646 39.1232 43.1504C36.8273 44.6548 34.2427 45.6635 31.5348 46.1119C31.2145 47.0529 30.5755 47.8524 29.7282 48.3722C28.881 48.892 27.8788 49.0994 26.8948 48.9587C25.9108 48.8179 25.007 48.3378 24.3394 47.6013C23.6719 46.8648 23.2827 45.9183 23.239 44.9253C23.1954 43.9322 23.5 42.9552 24.1004 42.1629C24.7007 41.3707 25.5589 40.8131 26.5268 40.5866C27.4946 40.36 28.5111 40.4788 29.4007 40.9222C30.2903 41.3657 30.997 42.106 31.3986 43.0152C35.2111 42.3101 38.6552 40.2896 41.1308 37.3057C43.6064 34.3218 44.9564 30.5639 44.9456 26.6868C44.9456 17.5271 37.4938 10.0753 28.3341 10.0753C19.1745 10.0753 11.7226 17.5271 11.7226 26.6868C11.7221 29.5191 12.446 32.3044 13.8254 34.7782C13.8721 34.8598 13.9072 34.9476 13.9296 35.0389C14.0629 35.4093 14.0486 35.8166 13.8899 36.1768C13.7311 36.5369 13.4399 36.8222 13.0767 36.9736C12.1872 37.3479 11.2318 37.5407 10.2667 37.5406C10.1531 37.5406 10.0393 37.5379 9.92525 37.5327C7.98854 37.4461 6.1652 36.595 4.85502 35.1661C3.54485 33.7372 2.85478 31.8471 2.93612 29.9101C2.96882 29.1377 2.95057 28.4486 2.93274 27.7822C2.91613 27.1547 2.89881 26.5058 2.9273 25.8288C3.01235 23.9375 3.82589 22.1526 5.19751 20.8477C6.56914 19.5429 8.39245 18.8194 10.2856 18.8288C13.3256 11.8734 20.2708 7 28.3341 7C36.3975 7 43.3428 11.8734 46.3828 18.8289C48.2761 18.8181 50.1 19.5409 51.4719 20.8458C52.8437 22.1507 53.6569 23.9362 53.7409 25.8276C53.7695 26.5057 53.7522 27.1545 53.7354 27.782C53.7178 28.4485 53.6994 29.1379 53.7321 29.9109ZM41.2302 26.6868C41.2295 28.6624 40.775 30.6116 39.9017 32.3838C39.0285 34.1561 37.76 35.7041 36.1938 36.9085C34.6277 38.1129 32.8059 38.9416 30.8689 39.3305C28.9318 39.7194 26.9313 39.6583 25.0217 39.1518L19.8018 42.1663C19.5385 42.3183 19.2359 42.3889 18.9324 42.3691C18.6289 42.3492 18.3381 42.2397 18.0969 42.0546C17.8556 41.8695 17.6746 41.6169 17.5768 41.3289C17.4791 41.0409 17.4689 40.7304 17.5477 40.4366L18.8817 35.46C16.6725 33.0721 15.4432 29.9399 15.4386 26.6868C15.4386 19.5739 21.2232 13.7877 28.3341 13.7877C35.445 13.7877 41.2302 19.5739 41.2302 26.6868ZM24.7489 26.6868C24.7489 26.2789 24.5869 25.8878 24.2985 25.5995C24.0102 25.3111 23.6191 25.1491 23.2113 25.1491H23.2087C22.9047 25.1497 22.6077 25.2404 22.3552 25.4097C22.1027 25.579 21.9061 25.8193 21.7902 26.1003C21.6742 26.3813 21.6442 26.6904 21.7038 26.9885C21.7635 27.2866 21.9102 27.5603 22.1253 27.775C22.3405 27.9898 22.6145 28.1359 22.9127 28.195C23.2108 28.2541 23.5199 28.2235 23.8007 28.1071C24.0815 27.9906 24.3214 27.7935 24.4903 27.5407C24.6591 27.2879 24.7492 26.9907 24.7492 26.6868H24.7489ZM29.8721 26.6868C29.8719 26.6364 29.8692 26.5861 29.8639 26.5361C29.859 26.4858 29.8515 26.4359 29.8414 26.3864C29.8322 26.3371 29.8199 26.2885 29.8044 26.2408C29.7902 26.1927 29.7727 26.1455 29.7543 26.0984C29.7358 26.0512 29.7133 26.0071 29.6897 25.963C29.6663 25.9187 29.6406 25.8756 29.6128 25.8339C29.5848 25.7917 29.5547 25.751 29.5225 25.7119C29.4909 25.6727 29.4571 25.6354 29.4211 25.6002C29.3863 25.5643 29.3484 25.5305 29.3094 25.4977C29.2703 25.4669 29.2293 25.4361 29.1873 25.4085C29.1456 25.3807 29.1025 25.355 29.0583 25.3316C29.0141 25.308 28.968 25.2865 28.9218 25.267C28.8757 25.2477 28.8285 25.2309 28.7805 25.2168C28.6846 25.186 28.5856 25.166 28.4852 25.1573C28.3346 25.1428 28.1827 25.1501 28.0342 25.1789C27.9847 25.1889 27.9358 25.2016 27.8877 25.2168C27.8397 25.2309 27.7924 25.2476 27.7462 25.267C27.7001 25.2865 27.654 25.308 27.6099 25.3316C27.5658 25.3552 27.5228 25.3808 27.4806 25.4085C27.3965 25.4643 27.3182 25.5285 27.247 25.6002C27.2111 25.6354 27.1771 25.6727 27.1454 25.7119C27.1137 25.751 27.084 25.7917 27.0564 25.8339C27.0282 25.8756 27.0022 25.9187 26.9785 25.963C26.9548 26.007 26.9336 26.0521 26.9148 26.0984C26.8953 26.145 26.8782 26.1925 26.8635 26.2408C26.8493 26.288 26.837 26.3372 26.8267 26.3864C26.8166 26.4359 26.8091 26.4858 26.8041 26.5361C26.7991 26.5863 26.7969 26.6365 26.7969 26.6868C26.7969 26.737 26.7991 26.7882 26.8041 26.8385C26.8091 26.8884 26.8167 26.938 26.8267 26.9871C26.837 27.0363 26.8493 27.0855 26.8635 27.1337C26.8782 27.1817 26.8953 27.2289 26.9148 27.2752C26.9336 27.3217 26.9548 27.3672 26.9785 27.4115C27.0019 27.4556 27.0287 27.4986 27.0564 27.5406C27.084 27.5825 27.1137 27.6228 27.1454 27.6616C27.1774 27.7009 27.2113 27.7385 27.247 27.7744C27.2829 27.8092 27.3198 27.8441 27.3598 27.8759C27.3983 27.9079 27.4387 27.9376 27.4806 27.965C27.5228 27.9927 27.5657 28.0194 27.6099 28.0429C27.6989 28.0893 27.7919 28.1278 27.8877 28.1577C27.9358 28.1721 27.985 28.1844 28.0342 28.1947C28.133 28.2149 28.2337 28.2248 28.3345 28.2244C28.7419 28.2233 29.1323 28.0616 29.4211 27.7744C29.492 27.7024 29.5562 27.6242 29.6128 27.5406C29.6405 27.4986 29.6661 27.4556 29.6897 27.4115C29.7133 27.3674 29.7348 27.3213 29.7543 27.2752C29.7738 27.229 29.7902 27.1808 29.8044 27.1337C29.8197 27.0856 29.8321 27.0367 29.8414 26.9871C29.8515 26.938 29.8589 26.8884 29.8639 26.8385C29.8691 26.788 29.8717 26.7373 29.8718 26.6865L29.8721 26.6868ZM34.9975 26.6868C34.9975 26.2789 34.8355 25.8878 34.5471 25.5995C34.2588 25.3111 33.8677 25.1491 33.4599 25.1491H33.4569C33.1529 25.1497 32.8559 25.2404 32.6034 25.4097C32.351 25.579 32.1544 25.8194 32.0384 26.1004C31.9225 26.3814 31.8925 26.6905 31.9521 26.9885C32.0118 27.2866 32.1585 27.5603 32.3736 27.7751C32.5888 27.9898 32.8628 28.136 33.161 28.195C33.4592 28.2541 33.7682 28.2235 34.049 28.107C34.3298 27.9906 34.5697 27.7935 34.7386 27.5407C34.9074 27.2879 34.9975 26.9907 34.9975 26.6868Z" fill="#1E84FE"/>
</svg>
