<svg width="56" height="56" viewBox="0 0 56 56" fill="none" xmlns="http://www.w3.org/2000/svg">
<path d="M48.7327 28.931C48.9075 28.6519 49.0003 28.3293 49.0003 28C49.0003 27.6707 48.9075 27.3481 48.7327 27.069C43.0504 18.0303 36.6577 14 28.0004 14C19.3432 14 12.9504 18.0303 7.2682 27.069C7.09296 27.3479 7 27.6706 7 28C7 28.3294 7.09296 28.6521 7.2682 28.931C12.9504 37.9698 19.3432 42 28.0004 42C36.6577 42 43.0504 37.9698 48.7327 28.931ZM28.0004 36.75C26.2699 36.75 24.5781 36.2368 23.1392 35.2754C21.7003 34.3139 20.5788 32.9473 19.9165 31.3485C19.2542 29.7496 19.081 27.9903 19.4186 26.293C19.7562 24.5956 20.5896 23.0365 21.8133 21.8128C23.037 20.5891 24.5961 19.7557 26.2934 19.4181C27.9907 19.0805 29.7501 19.2538 31.3489 19.9161C32.9478 20.5783 34.3143 21.6998 35.2758 23.1388C36.2373 24.5777 36.7504 26.2694 36.7504 28C36.7477 30.3198 35.8249 32.5438 34.1846 34.1841C32.5442 35.8245 30.3202 36.7472 28.0004 36.75Z" fill="#1E84FE"/>
<path d="M28 33.25C30.8995 33.25 33.25 30.8995 33.25 28C33.25 25.1005 30.8995 22.75 28 22.75C25.1005 22.75 22.75 25.1005 22.75 28C22.75 30.8995 25.1005 33.25 28 33.25Z" fill="#1E84FE"/>
<path d="M8.75 15.75C9.21413 15.75 9.65925 15.5656 9.98744 15.2374C10.3156 14.9092 10.5 14.4641 10.5 14V10.5H14C14.4641 10.5 14.9092 10.3156 15.2374 9.98744C15.5656 9.65925 15.75 9.21413 15.75 8.75C15.75 8.28587 15.5656 7.84075 15.2374 7.51256C14.9092 7.18437 14.4641 7 14 7H8.75C8.28587 7 7.84075 7.18437 7.51256 7.51256C7.18437 7.84075 7 8.28587 7 8.75V14C7 14.4641 7.18437 14.9092 7.51256 15.2374C7.84075 15.5656 8.28587 15.75 8.75 15.75ZM47.25 7H42C41.5359 7 41.0908 7.18437 40.7626 7.51256C40.4344 7.84075 40.25 8.28587 40.25 8.75C40.25 9.21413 40.4344 9.65925 40.7626 9.98744C41.0908 10.3156 41.5359 10.5 42 10.5H45.5V14C45.5 14.4641 45.6844 14.9092 46.0126 15.2374C46.3408 15.5656 46.7859 15.75 47.25 15.75C47.7141 15.75 48.1592 15.5656 48.4874 15.2374C48.8156 14.9092 49 14.4641 49 14V8.75C49 8.28587 48.8156 7.84075 48.4874 7.51256C48.1592 7.18437 47.7141 7 47.25 7ZM14 45.5H10.5V42C10.5 41.5359 10.3156 41.0908 9.98744 40.7626C9.65925 40.4344 9.21413 40.25 8.75 40.25C8.28587 40.25 7.84075 40.4344 7.51256 40.7626C7.18437 41.0908 7 41.5359 7 42V47.25C7 47.7141 7.18437 48.1592 7.51256 48.4874C7.84075 48.8156 8.28587 49 8.75 49H14C14.4641 49 14.9092 48.8156 15.2374 48.4874C15.5656 48.1592 15.75 47.7141 15.75 47.25C15.75 46.7859 15.5656 46.3408 15.2374 46.0126C14.9092 45.6844 14.4641 45.5 14 45.5ZM47.25 40.25C46.7859 40.25 46.3408 40.4344 46.0126 40.7626C45.6844 41.0908 45.5 41.5359 45.5 42V45.5H42C41.5359 45.5 41.0908 45.6844 40.7626 46.0126C40.4344 46.3408 40.25 46.7859 40.25 47.25C40.25 47.7141 40.4344 48.1592 40.7626 48.4874C41.0908 48.8156 41.5359 49 42 49H47.25C47.7141 49 48.1592 48.8156 48.4874 48.4874C48.8156 48.1592 49 47.7141 49 47.25V42C49 41.5359 48.8156 41.0908 48.4874 40.7626C48.1592 40.4344 47.7141 40.25 47.25 40.25Z" fill="#1E84FE"/>
</svg>
