<svg width="56" height="56" viewBox="0 0 56 56" fill="none" xmlns="http://www.w3.org/2000/svg">
<path d="M32.4552 17.8846V35.7118H26.5129V44.6253H35.0757L45.8255 50V44.6252H53.2534V17.8846H32.4552ZM48.7967 39.3015H41.3687C38.9112 39.3015 36.912 37.3021 36.912 34.8448C36.912 32.7923 38.3069 31.0605 40.1982 30.5451C39.9898 30.0225 39.8829 29.465 39.8831 28.9024C39.8831 26.445 41.8823 24.4457 44.3399 24.4457H47.3111V27.4168H44.3399C43.5207 27.4168 42.8543 28.0833 42.8543 28.9024C42.8543 29.7216 43.5207 30.388 44.3399 30.388H47.3111V33.3592H41.3687C40.5495 33.3592 39.8831 34.0255 39.8831 34.8448C39.8831 35.6639 40.5495 36.3304 41.3687 36.3304H48.7967V39.3015ZM16.1138 14.9135C14.4754 14.9135 13.1426 16.2463 13.1426 17.8846V19.3702H19.0849V17.8846C19.0849 16.2463 17.7521 14.9135 16.1138 14.9135Z" fill="#1E84FE"/>
<path d="M29.4847 6H2.74414V32.7407H10.1721V38.1155L20.9219 32.7407H29.4847V6ZM22.0568 26.7983H19.0856V22.3415H13.1433V26.7983H10.1721V17.8847C10.1721 14.6082 12.8378 11.9423 16.1144 11.9423C19.391 11.9423 22.0568 14.6082 22.0568 17.8847V26.7983Z" fill="#1E84FE"/>
</svg>
