<svg width="57" height="56" viewBox="0 0 57 56" fill="none" xmlns="http://www.w3.org/2000/svg">
<path d="M16.3613 41.3442V43.581C16.3613 43.8777 16.479 44.1625 16.6891 44.3716C16.8983 44.5817 17.1835 44.6994 17.4797 44.6994H39.8468C40.1435 44.6994 40.4283 44.5817 40.6379 44.3716C40.8476 44.1625 40.9652 43.8772 40.9652 43.5805V41.3442C40.9652 38.0815 39.6691 34.9525 37.3621 32.6454C35.055 30.3383 31.926 29.0422 28.6633 29.0422C25.4006 29.0422 22.2715 30.3383 19.9645 32.6454C17.6574 34.9525 16.3613 38.0815 16.3613 41.3442ZM6.29614 44.6994H14.3168C14.1894 44.3403 14.1243 43.9621 14.1245 43.581V41.3442C14.1245 38.79 14.7969 36.305 16.0429 34.126C15.0816 33.7215 14.049 33.5141 13.0061 33.5159C8.68326 33.5159 5.17773 37.0204 5.17773 41.3442V43.581C5.17787 43.8776 5.29574 44.162 5.50545 44.3717C5.71517 44.5814 5.99956 44.6993 6.29614 44.6994ZM44.3205 33.5159C43.2431 33.5159 42.2176 33.7324 41.2841 34.126C42.5411 36.324 43.2022 38.8122 43.202 41.3442V43.581C43.202 43.9657 43.1358 44.3434 43.0092 44.6994H51.0304C51.327 44.6993 51.6114 44.5814 51.8211 44.3717C52.0308 44.162 52.1487 43.8776 52.1488 43.581V41.3442C52.1488 37.0204 48.6438 33.5159 44.3205 33.5159Z" fill="#1E84FE"/>
<path d="M16.916 29.6875C19.1208 27.5253 19.1554 23.9851 16.9933 21.7802C14.8311 19.5754 11.2909 19.5408 9.08602 21.7029C6.88115 23.8651 6.84655 27.4053 9.00873 29.6102C11.1709 31.8151 14.7111 31.8497 16.916 29.6875Z" fill="#1E84FE"/>
<path d="M48.2373 29.6993C50.4424 27.5369 50.477 23.9964 48.3146 21.7914C46.1522 19.5863 42.6117 19.5517 40.4067 21.7141C38.2016 23.8764 38.167 27.417 40.3294 29.622C42.4918 31.8271 46.0323 31.8617 48.2373 29.6993Z" fill="#1E84FE"/>
<path d="M29.9118 26.7023C34.1803 26.0148 37.0832 21.9972 36.3957 17.7288C35.7082 13.4603 31.6906 10.5574 27.4221 11.2449C23.1536 11.9324 20.2507 15.95 20.9382 20.2185C21.6257 24.4869 25.6434 27.3899 29.9118 26.7023Z" fill="#1E84FE"/>
</svg>
