<svg width="20" height="21" viewBox="0 0 20 21" fill="none" xmlns="http://www.w3.org/2000/svg">
<path d="M3.33268 10.4998C3.33268 12.2679 4.03506 13.9636 5.2853 15.2139C6.53555 16.4641 8.23124 17.1665 9.99935 17.1665M3.33268 10.4998C3.33268 8.73173 4.03506 7.03603 5.2853 5.78579C6.53555 4.53555 8.23124 3.83317 9.99935 3.83317M3.33268 10.4998H1.66602M9.99935 17.1665C11.7675 17.1665 13.4632 16.4641 14.7134 15.2139C15.9636 13.9636 16.666 12.2679 16.666 10.4998M9.99935 17.1665V18.8332M16.666 10.4998C16.666 8.73173 15.9636 7.03603 14.7134 5.78579C13.4632 4.53555 11.7675 3.83317 9.99935 3.83317M16.666 10.4998H18.3327M9.99935 3.83317V2.1665M7.49935 10.4998C7.49935 11.1629 7.76274 11.7988 8.23158 12.2676C8.70042 12.7364 9.33631 12.9998 9.99935 12.9998C10.6624 12.9998 11.2983 12.7364 11.7671 12.2676C12.236 11.7988 12.4993 11.1629 12.4993 10.4998C12.4993 9.8368 12.236 9.20091 11.7671 8.73207C11.2983 8.26323 10.6624 7.99984 9.99935 7.99984C9.33631 7.99984 8.70042 8.26323 8.23158 8.73207C7.76274 9.20091 7.49935 9.8368 7.49935 10.4998Z" stroke="#1D2635" stroke-width="2" stroke-linecap="round" stroke-linejoin="round"/>
</svg>
