<svg width="52" height="52" viewBox="0 0 52 52" fill="none" xmlns="http://www.w3.org/2000/svg">
<path d="M47.3897 35.3204C47.3897 34.0712 46.8346 32.9492 45.9581 32.1882C46.8346 31.4271 47.3897 30.3053 47.3897 29.056C47.3897 26.7689 45.5289 24.9082 43.2417 24.9082H30.907L32.3309 19.5338C33.5068 15.0983 31.4347 10.9547 28.8404 9.65913C27.3172 8.89894 26.0946 8.77767 25.1026 9.28812C23.7488 9.98464 23.3193 11.6109 23.0567 13.2648C21.9693 20.1321 20.289 24.5493 14.5344 28.2199C14.522 28.2278 14.5097 28.236 14.4977 28.2445L12.8626 29.3903C12.4032 29.7121 12.2918 30.3455 12.6136 30.8048C12.9356 31.2642 13.5689 31.3757 14.0282 31.0538L15.6454 29.9205C18.6987 27.9696 20.8075 25.7774 22.2815 23.0225C23.5623 20.6286 24.3942 17.8054 25.0628 13.5831C25.1568 12.9905 25.4068 11.4161 26.0318 11.0945C26.3922 10.909 27.0675 11.0446 27.9329 11.4767C29.574 12.2961 31.333 15.3712 30.3674 19.0136L28.6055 25.6639C28.5246 25.9685 28.59 26.2935 28.7823 26.5434C28.9745 26.7932 29.2719 26.9396 29.5872 26.9396H43.2416C44.4088 26.9396 45.3583 27.8891 45.3583 29.0561C45.3583 30.2232 44.4088 31.1727 43.2416 31.1727H38.9723C38.4114 31.1727 37.9566 31.6274 37.9566 32.1883C37.9566 32.7493 38.4114 33.204 38.9723 33.204H43.2416C44.4088 33.204 45.3583 34.1535 45.3583 35.3205C45.3583 36.4876 44.4088 37.4371 43.2416 37.4371H38.9723C38.4114 37.4371 37.9566 37.8918 37.9566 38.4527C37.9566 39.0136 38.4114 39.4683 38.9723 39.4683H43.2416C44.4088 39.4683 45.3583 40.4178 45.3583 41.5849C45.3583 42.7536 44.4088 43.7044 43.2416 43.7044H40.8579H38.9723C38.4114 43.7044 37.9566 44.1591 37.9566 44.72C37.9566 45.281 38.4114 45.7357 38.9723 45.7357H40.8579C42.0249 45.7357 42.9745 46.6852 42.9745 47.8522C42.9745 49.0193 42.0251 49.9688 40.8581 49.9688H26.6911C23.6219 49.9688 18.0509 48.3935 15.7395 46.4402L14.6657 45.5247C14.2389 45.1608 13.5979 45.2118 13.2339 45.6387C12.87 46.0655 12.921 46.7066 13.3478 47.0705L14.425 47.9888C17.1416 50.2845 23.1414 52 26.691 52H40.858C43.1452 52 45.0059 50.1393 45.0059 47.8522C45.0059 47.0183 44.7584 46.2408 44.3331 45.5898C46.0925 45.1092 47.3897 43.4957 47.3897 41.5849C47.3897 40.3357 46.8346 39.2137 45.9581 38.4527C46.8346 37.6916 47.3897 36.5696 47.3897 35.3204Z" fill="#1E84FE"/>
<path d="M16.002 5.00847L17.807 6.6091C18.0004 6.78053 18.2409 6.86483 18.4805 6.86483C18.7609 6.86483 19.0401 6.74936 19.2408 6.52307C19.613 6.10342 19.5744 5.46144 19.1548 5.08932L17.3497 3.48869C16.93 3.11646 16.2882 3.15506 15.9159 3.57471C15.5438 3.99447 15.5823 4.63635 16.002 5.00847Z" fill="#1E84FE"/>
<path d="M36.8851 6.86483C37.1246 6.86483 37.3652 6.78054 37.5586 6.6091L39.3636 5.00847C39.7833 4.63635 39.8219 3.99447 39.4498 3.57472C39.0775 3.15506 38.436 3.11647 38.016 3.48869L36.211 5.08932C35.7913 5.46144 35.7527 6.10332 36.1248 6.52307C36.3256 6.74936 36.6047 6.86483 36.8851 6.86483Z" fill="#1E84FE"/>
<path d="M15.1475 14.1505C15.1619 14.1511 15.1764 14.1514 15.1907 14.1514C15.7321 14.1514 16.1818 13.7241 16.2047 13.1781C16.228 12.6177 15.7927 12.1444 15.2323 12.121L12.8198 12.0202C12.2595 11.9972 11.786 12.4321 11.7626 12.9926C11.7393 13.553 12.1746 14.0263 12.735 14.0497L15.1475 14.1505Z" fill="#1E84FE"/>
<path d="M39.1571 13.1781C39.18 13.7241 39.6297 14.1513 40.1711 14.1513C40.1854 14.1513 40.1998 14.151 40.2142 14.1504L42.6267 14.0497C43.1872 14.0263 43.6225 13.5529 43.5991 12.9925C43.5756 12.4321 43.1013 11.9977 42.542 12.0201L40.1295 12.1209C39.5691 12.1444 39.1338 12.6176 39.1571 13.1781Z" fill="#1E84FE"/>
<path d="M27.6816 4.44377C28.2425 4.44377 28.6973 3.98907 28.6973 3.42814V1.01562C28.6973 0.454695 28.2425 0 27.6816 0C27.1208 0 26.666 0.454695 26.666 1.01562V3.42814C26.666 3.98907 27.1208 4.44377 27.6816 4.44377Z" fill="#1E84FE"/>
<path fill-rule="evenodd" clip-rule="evenodd" d="M4.60938 27.9275V48.3617C4.60938 49.3521 5.42127 50.164 6.4116 50.164H13.2778C14.2681 50.164 15.08 49.3521 15.08 48.3617V47.2131V29.0761V27.9275C15.08 26.9371 14.2681 26.1252 13.2778 26.1252H6.4115C5.42117 26.1252 4.60938 26.9371 4.60938 27.9275Z" fill="#FF8C32"/>
<path d="M10.082 32.7778C9.5211 32.7778 9.06641 32.3231 9.06641 31.7622C9.06641 31.2012 9.5211 30.7437 10.082 30.7437C10.6429 30.7437 11.0976 31.1955 11.0976 31.7565V31.7623C11.0976 32.3231 10.6429 32.7778 10.082 32.7778Z" fill="#1E84FE"/>
</svg>
