<svg width="52" height="52" viewBox="0 0 52 52" fill="none" xmlns="http://www.w3.org/2000/svg">
<g clip-path="url(#clip0_12631_2013)">
<mask id="mask0_12631_2013" style="mask-type:luminance" maskUnits="userSpaceOnUse" x="0" y="0" width="52" height="52">
<path d="M52 0H0V52H52V0Z" fill="white"/>
</mask>
<g mask="url(#mask0_12631_2013)">
<path d="M1.01562 44.6488C1.01562 46.8322 2.78555 48.6021 4.96895 48.6021H11.5948L1.01562 38.0229V44.6488Z" fill="#FF8C32"/>
<path d="M40.4043 48.6021H47.0301C49.2134 48.6021 50.9835 46.8322 50.9835 44.6488V38.0229L40.4043 48.6021Z" fill="#FF8C32"/>
<path d="M25.9983 42.2658C32.2051 42.2658 37.2368 37.2342 37.2368 31.0273C37.2368 24.8205 32.2051 19.7888 25.9983 19.7888C19.7914 19.7888 14.7598 24.8205 14.7598 31.0273C14.7598 37.2342 19.7914 42.2658 25.9983 42.2658Z" fill="#FF8C32"/>
<path d="M47.0311 4.21729H46.8596V3.39819C46.8596 2.83726 46.4048 2.38257 45.844 2.38257H41.708C41.1471 2.38257 40.6923 2.83726 40.6923 3.39819V4.21729H36.8971V3.39819C36.8971 2.83726 36.4424 2.38257 35.8815 2.38257H31.7455C31.1847 2.38257 30.7299 2.83726 30.7299 3.39819V4.21729H21.27V3.39819C21.27 2.83726 20.8153 2.38257 20.2544 2.38257H16.1185C15.5575 2.38257 15.1029 2.83726 15.1029 3.39819V4.21729H11.3076V3.39819C11.3076 2.83726 10.8529 2.38257 10.2919 2.38257H6.15611C5.59518 2.38257 5.14048 2.83726 5.14048 3.39819V4.21729H4.96895C2.22909 4.21729 0 6.44638 0 9.18623V44.6488C0 47.3886 2.22909 49.6176 4.96895 49.6176H47.0311C49.771 49.6176 52 47.3886 52 44.6488V9.18623C52 6.44638 49.771 4.21729 47.0311 4.21729ZM42.7236 4.41382H44.8284V8.53034H42.7236V4.41382ZM32.7611 4.41382H34.8659V8.53034H32.7611V4.41382ZM17.1342 4.41382H19.2389V8.53034H17.1342V4.41382ZM7.17173 4.41382H9.27641V8.53034H7.17173V4.41382ZM2.03125 9.18623C2.03125 7.56642 3.34912 6.24854 4.96895 6.24854H5.14048V8.53024H5.00439C4.44346 8.53024 3.98877 8.98494 3.98877 9.54587C3.98877 10.1068 4.44346 10.5615 5.00439 10.5615H11.4439C12.0048 10.5615 12.4595 10.1068 12.4595 9.54587C12.4595 8.98494 12.0048 8.53024 11.4439 8.53024H11.3077V6.24854H15.103V8.53024H14.9669C14.4059 8.53024 13.9512 8.98494 13.9512 9.54587C13.9512 10.1068 14.4059 10.5615 14.9669 10.5615H21.4063C21.9673 10.5615 22.422 10.1068 22.422 9.54587C22.422 8.98494 21.9673 8.53024 21.4063 8.53024H21.2702V6.24854H30.7301V8.53024H30.5939C30.033 8.53024 29.5782 8.98494 29.5782 9.54587C29.5782 10.1068 30.033 10.5615 30.5939 10.5615H37.0333C37.5942 10.5615 38.049 10.1068 38.049 9.54587C38.049 8.98494 37.5942 8.53024 37.0333 8.53024H36.8972V6.24854H40.6924V8.53024H40.5562C39.9954 8.53024 39.5406 8.98494 39.5406 9.54587C39.5406 10.1068 39.9954 10.5615 40.5562 10.5615H46.9957C47.5565 10.5615 48.0113 10.1068 48.0113 9.54587C48.0113 8.98494 47.5565 8.53024 46.9957 8.53024H46.8596V6.24854H47.0311C48.6509 6.24854 49.9688 7.56642 49.9688 9.18623V12.8433H2.03125V9.18623ZM49.9688 44.6488C49.9688 46.2686 48.6509 47.5864 47.0311 47.5864H4.96895C3.34912 47.5864 2.03125 46.2686 2.03125 44.6488V14.8745H49.9688V44.6488Z" fill="#1E84FE"/>
<path d="M23.0437 34.1837C23.2421 34.382 23.502 34.4812 23.7619 34.4812C24.0218 34.4812 24.2818 34.382 24.48 34.1837L25.9969 32.6668L27.5137 34.1837C27.7121 34.382 27.972 34.4812 28.2319 34.4812C28.4917 34.4812 28.7516 34.382 28.95 34.1837C29.3466 33.7871 29.3466 33.144 28.95 32.7473L27.4332 31.2304L28.95 29.7136C29.3466 29.317 29.3466 28.6739 28.95 28.2772C28.5533 27.8806 27.9104 27.8806 27.5136 28.2772L25.9968 29.794L24.4799 28.2772C24.0833 27.8806 23.4402 27.8806 23.0435 28.2772C22.6469 28.6738 22.6469 29.3169 23.0435 29.7136L24.5604 31.2304L23.0435 32.7473C22.6472 33.144 22.6472 33.7871 23.0437 34.1837Z" fill="white"/>
</g>
</g>
<defs>
<clipPath id="clip0_12631_2013">
<rect width="52" height="52" fill="white"/>
</clipPath>
</defs>
</svg>
