<svg width="52" height="52" viewBox="0 0 52 52" fill="none" xmlns="http://www.w3.org/2000/svg">
<g clip-path="url(#clip0_12631_2007)">
<mask id="mask0_12631_2007" style="mask-type:luminance" maskUnits="userSpaceOnUse" x="0" y="0" width="52" height="52">
<path d="M52 0H0V52H52V0Z" fill="white"/>
</mask>
<g mask="url(#mask0_12631_2007)">
<path d="M25.9991 39.2003C28.4396 39.2003 30.4181 37.2218 30.4181 34.7813C30.4181 32.3408 28.4396 30.3623 25.9991 30.3623C23.5586 30.3623 21.5801 32.3408 21.5801 34.7813C21.5801 37.2218 23.5586 39.2003 25.9991 39.2003Z" fill="#FF8C32"/>
<path d="M25.9999 39.2004C21.525 39.2004 17.8984 42.8269 17.8984 47.3019V48.2207C22.6186 51.8704 29.2885 51.942 34.1013 48.2207V47.3019C34.1014 42.829 30.4751 39.2004 25.9999 39.2004Z" fill="#FF8C32"/>
<path d="M25.8983 5.09473L27.2219 7.78786L30.1813 8.21788L28.0399 10.3054L28.5453 13.253L25.8983 11.8613L23.2512 13.253L23.7568 10.3054L21.6152 8.21788L24.5748 7.78786L25.8983 5.09473Z" fill="#FF8C32"/>
<path d="M38.7478 5.09473L40.0714 7.78786L43.0309 8.21788L40.8894 10.3054L41.395 13.253L38.7478 11.8613L36.1008 13.253L36.6063 10.3054L34.4648 8.21788L37.4243 7.78786L38.7478 5.09473Z" fill="#FF8C32"/>
<path d="M13.2538 5.09473L14.5773 7.78786L17.5368 8.21788L15.3952 10.3054L15.9008 13.253L13.2538 11.8613L10.6067 13.253L11.1122 10.3054L8.9707 8.21788L11.9302 7.78786L13.2538 5.09473Z" fill="#FF8C32"/>
<path d="M47.9251 0H4.07499C1.82802 0 0 1.82802 0 4.07489V14.2726C0 16.5195 1.82802 18.3476 4.07499 18.3476H21.1036L25.4367 21.2362C25.7776 21.4636 26.2222 21.4637 26.5635 21.2362L30.8965 18.3476H47.9252C50.1721 18.3476 52.0001 16.5195 52.0001 14.2726V4.07489C52 1.82802 50.172 0 47.9251 0ZM49.9688 14.2726C49.9688 15.3995 49.052 16.3163 47.9251 16.3163H30.589C30.3884 16.3163 30.1925 16.3756 30.0256 16.4869L26 19.1706L21.9744 16.4869C21.8075 16.3756 21.6115 16.3163 21.411 16.3163H4.07499C2.94805 16.3163 2.03125 15.3995 2.03125 14.2726V4.07489C2.03125 2.94795 2.94805 2.03125 4.07499 2.03125H47.9251C49.052 2.03125 49.9688 2.94795 49.9688 4.07489V14.2726Z" fill="#1E84FE"/>
<path d="M25.9993 23.4546C18.1293 23.4546 11.7266 29.8573 11.7266 37.7273C11.7266 45.5972 18.1293 51.9999 25.9993 51.9999C33.8692 51.9999 40.2719 45.5972 40.2719 37.7273C40.2719 29.8572 33.8692 23.4546 25.9993 23.4546ZM25.9993 49.9686C19.2494 49.9686 13.7579 44.4772 13.7579 37.7273C13.7579 30.9773 19.2494 25.4859 25.9993 25.4859C32.7493 25.4859 38.2407 30.9773 38.2407 37.7273C38.2407 44.4772 32.7493 49.9686 25.9993 49.9686Z" fill="#1E84FE"/>
</g>
</g>
<defs>
<clipPath id="clip0_12631_2007">
<rect width="52" height="52" fill="white"/>
</clipPath>
</defs>
</svg>
