<svg width="52" height="52" viewBox="0 0 52 52" fill="none" xmlns="http://www.w3.org/2000/svg">
<g clip-path="url(#clip0_12631_2019)">
<path d="M33.4052 16.3079C30.9244 16.3079 28.7456 14.9912 27.5328 13.0209C26.3198 14.9912 24.1408 16.3079 21.6595 16.3079H17.3551L16.3184 16.2595V15.2605L16.3201 15.2299C16.4869 12.3752 17.9157 9.74939 20.1903 8.04873C19.9829 7.42889 19.8782 6.78123 19.8782 6.11396C19.8781 2.7428 22.6246 0 26.0003 0C29.3761 0 32.1225 2.7428 32.1225 6.11406C32.1225 6.78133 32.0179 7.42889 31.8104 8.04883C34.085 9.74949 35.5139 12.3753 35.6807 15.23L35.6824 15.2596V16.2586L34.6456 16.3079H33.4052Z" fill="#FF8C32"/>
<path d="M37.7319 36.532C41.1881 37.9863 43.9252 41.1714 43.9252 44.8663V50.9844H33.6602C33.6602 49.2926 33.6602 37.5079 33.6602 35.688C33.7671 35.6996 35.5237 35.5999 37.7319 36.532Z" fill="#FF8C32"/>
<path d="M18.3391 50.9845H8.07422V44.8663C8.07422 41.1715 10.8113 37.9865 14.2675 36.5321C15.5522 35.9898 16.9365 35.688 18.3167 35.688H18.3391V50.9845Z" fill="#FF8C32"/>
<path d="M33.5811 39.8805C28.4797 43.8129 23.5202 43.8129 18.4189 39.8805C17.9745 39.5381 17.337 39.6206 16.9945 40.0649C16.6521 40.5091 16.7345 41.1468 17.1788 41.4893C22.9281 45.9213 28.9095 46.0464 34.8213 41.4893C35.2655 41.1468 35.348 40.5091 35.0055 40.0649C34.663 39.6204 34.0252 39.5383 33.5811 39.8805Z" fill="#1E84FE"/>
<path d="M22.4375 21.4652C22.9983 21.4652 23.4531 21.0105 23.4531 20.4496V19.4258C23.4531 18.865 22.9983 18.4102 22.4375 18.4102C21.8767 18.4102 21.4219 18.865 21.4219 19.4258V20.4496C21.4219 21.0104 21.8767 21.4652 22.4375 21.4652Z" fill="#1E84FE"/>
<path d="M29.6074 21.4652C30.1682 21.4652 30.623 21.0105 30.623 20.4496V19.4258C30.623 18.865 30.1682 18.4102 29.6074 18.4102C29.0466 18.4102 28.5918 18.865 28.5918 19.4258V20.4496C28.5918 21.0104 29.0465 21.4652 29.6074 21.4652Z" fill="#1E84FE"/>
<path d="M33.6832 34.6723H31.4332L30.7396 31.393C31.9968 30.6914 33.0763 29.7221 33.9102 28.5451H33.9799C37.1798 28.5451 39.7831 25.9449 39.7831 22.749C39.7831 21.8788 39.7831 16.6287 39.7831 15.2923C39.7831 14.7314 39.3284 14.2766 38.7675 14.2766H34.6816C34.1207 14.2766 33.6659 14.7314 33.6659 15.2923V22.9409C33.6659 24.194 33.3618 25.4179 32.7819 26.5139H26C25.4391 26.5139 24.9844 26.9687 24.9844 27.5295C24.9844 28.0904 25.4391 28.5452 26 28.5452H31.2264C28.228 31.3362 23.5086 31.2814 20.5598 28.3495C19.1245 26.9207 18.3341 24.9998 18.3341 22.9409V15.2923C18.3341 14.7314 17.8794 14.2766 17.3184 14.2766H13.2326C12.6717 14.2766 12.217 14.7314 12.217 15.2923V21.4114C12.217 21.9723 12.6717 22.427 13.2326 22.427H16.3028V22.9409C16.3028 26.5548 18.2359 29.7106 21.2598 31.3961L20.5669 34.6724H18.3168C12.6838 34.6724 7.05859 39.2112 7.05859 44.8663V50.9843C7.05859 51.5451 7.51339 51.9999 8.07422 51.9999H43.9258C44.4866 51.9999 44.9414 51.5451 44.9414 50.9843V44.8662C44.9414 39.211 39.3162 34.6723 33.6832 34.6723ZM35.0779 26.3506C35.8397 24.3248 35.6752 22.7219 35.6973 22.4269H37.7518V22.7489C37.7518 24.4438 36.6237 25.8801 35.0779 26.3506ZM37.7518 20.3957H35.6972V16.3078H37.7517L37.7518 20.3957ZM14.2482 20.3957V16.3078H16.3028V20.3957H14.2482ZM28.8353 32.2055L29.4844 35.2743L26 37.9724L22.5156 35.2743L23.1645 32.2064C24.9715 32.7558 26.9704 32.774 28.8353 32.2055ZM42.9102 49.9687H9.08984V44.8662C9.08984 41.8435 11.3289 38.8704 14.6625 37.4676C15.8466 36.9677 17.1103 36.7036 18.3167 36.7036H21.0439L25.3781 40.0599C25.7445 40.3435 26.2557 40.3434 26.6219 40.0599L30.9562 36.7036H33.6833C34.8898 36.7036 36.1534 36.9678 37.3385 37.468C40.6712 38.8704 42.9102 41.8435 42.9102 44.8662V49.9687Z" fill="#1E84FE"/>
</g>
<defs>
<clipPath id="clip0_12631_2019">
<rect width="52" height="52" fill="white"/>
</clipPath>
</defs>
</svg>
