<svg width="32" height="32" viewBox="0 0 32 32" fill="none" xmlns="http://www.w3.org/2000/svg">
<path d="M2 9.5H3C3.5515 9.5 4 9.0515 4 8.5V6H7.5C8.0515 6 8.5 5.5515 8.5 5V4C8.5 3.4485 8.0515 3 7.5 3H2C1.4485 3 1 3.4485 1 4V8.5C1 9.0515 1.4485 9.5 2 9.5ZM2 4L7.5 3.999V5H3.5C3.36739 5 3.24021 5.05268 3.14645 5.14645C3.05268 5.24021 3 5.36739 3 5.5V8.5H2V4ZM30 3H12.5C11.9485 3 11.5 3.4485 11.5 4V5C11.5 5.5515 11.9485 6 12.5 6H16.5V13C16.5 13.1326 16.5527 13.2598 16.6464 13.3536C16.7402 13.4473 16.8674 13.5 17 13.5C17.1326 13.5 17.2598 13.4473 17.3536 13.3536C17.4473 13.2598 17.5 13.1326 17.5 13V10H19.5C19.6326 10 19.7598 9.94732 19.8536 9.85355C19.9473 9.75979 20 9.63261 20 9.5C20 9.36739 19.9473 9.24021 19.8536 9.14645C19.7598 9.05268 19.6326 9 19.5 9H17.5V6H23.5V11C23.5 11.1326 23.5527 11.2598 23.6464 11.3536C23.7402 11.4473 23.8674 11.5 24 11.5C24.1326 11.5 24.2598 11.4473 24.3536 11.3536C24.4473 11.2598 24.5 11.1326 24.5 11V6H28V8.5C28 9.0515 28.4485 9.5 29 9.5H30C30.5515 9.5 31 9.0515 31 8.5V4C31 3.4485 30.5515 3 30 3ZM30 8.5H29V5.5C29 5.36739 28.9473 5.24021 28.8536 5.14645C28.7598 5.05268 28.6326 5 28.5 5H12.5V4L30 4.0015V8.5ZM30 12.5H29C28.4485 12.5 28 12.9485 28 13.5V18H22C21.8674 18 21.7402 18.0527 21.6464 18.1464C21.5527 18.2402 21.5 18.3674 21.5 18.5C21.5 18.6326 21.5527 18.7598 21.6464 18.8536C21.7402 18.9473 21.8674 19 22 19H24V23C24 23.1326 24.0527 23.2598 24.1464 23.3536C24.2402 23.4473 24.3674 23.5 24.5 23.5C24.6326 23.5 24.7598 23.4473 24.8536 23.3536C24.9473 23.2598 25 23.1326 25 23V19H28V26H18.5V16.5C18.5 16.3674 18.4473 16.2402 18.3536 16.1464C18.2598 16.0527 18.1326 16 18 16C17.8674 16 17.7402 16.0527 17.6464 16.1464C17.5527 16.2402 17.5 16.3674 17.5 16.5V26H17C16.4485 26 16 26.4485 16 27V28C16 28.5515 16.4485 29 17 29H30C30.5515 29 31 28.5515 31 28V13.5C31 12.9485 30.5515 12.5 30 12.5ZM30 28H17V27H28.5C28.6326 27 28.7598 26.9473 28.8536 26.8536C28.9473 26.7598 29 26.6326 29 26.5V13.5L30 13.499V28ZM2 29H12C12.5515 29 13 28.5515 13 28V27C13 26.4485 12.5515 26 12 26V18.5C12 17.9485 11.5515 17.5 11 17.5H9.5C9.36739 17.5 9.24021 17.5527 9.14645 17.6464C9.05268 17.7402 9 17.8674 9 18C9 18.1326 9.05268 18.2598 9.14645 18.3536C9.24021 18.4473 9.36739 18.5 9.5 18.5H11V26H4V18.5H6.5C6.63261 18.5 6.75979 18.4473 6.85355 18.3536C6.94732 18.2598 7 18.1326 7 18C7 17.8674 6.94732 17.7402 6.85355 17.6464C6.75979 17.5527 6.63261 17.5 6.5 17.5H4V13.5C4 12.9485 3.5515 12.5 3 12.5H2C1.4485 12.5 1 12.9485 1 13.5V28C1 28.5515 1.4485 29 2 29ZM2 13.5H3V26.5C3 26.6326 3.05268 26.7598 3.14645 26.8536C3.24021 26.9473 3.36739 27 3.5 27L11.4955 26.999L11.5 27L11.5045 26.999H12V28H2V13.5Z" fill="#798090"/>
</svg>
