<svg xmlns="http://www.w3.org/2000/svg" version="1.1" xmlns:xlink="http://www.w3.org/1999/xlink" width="32" height="32" x="0" y="0" viewBox="0 0 512 512" style="enable-background:new 0 0 512 512" xml:space="preserve"><g><path d="M483.372 151.6 260.028 16.347a7.9 7.9 0 0 0-8.228 0L28.6 151.6a7.768 7.768 0 0 0-3.6 6.843V488.81c0 4.418 3.123 8.19 7.541 8.19h47.627A8.023 8.023 0 0 0 88 488.81V262h336v226.81a8.023 8.023 0 0 0 7.832 8.19h47.627c4.418 0 7.541-3.772 7.541-8.19V158.445a7.791 7.791 0 0 0-3.628-6.845ZM88 246v-32h336v32Zm383 235h-31V206.073a8.207 8.207 0 0 0-8.168-8.073H80.168A8.207 8.207 0 0 0 72 206.073V481H41V162.955L256 32.542l215 130.413Z" fill="#1e84fe" opacity="1" data-original="#000000"></path><path d="m380.269 351.891-21.143-57.217A27.094 27.094 0 0 0 333.957 277H181.812a27.1 27.1 0 0 0-25.17 17.674l-20.848 56.344-8.214 7.748A36.211 36.211 0 0 0 115 386.331V488.81a8.039 8.039 0 0 0 7.851 8.19h53.385a7.967 7.967 0 0 0 7.764-8.19V460h144v28.81a7.967 7.967 0 0 0 7.764 8.19h53.385a8.039 8.039 0 0 0 7.851-8.19V384.173a36.336 36.336 0 0 0-11.1-26.183ZM171.645 300.4a11.2 11.2 0 0 1 10.167-7.4h152.145a11.2 11.2 0 0 1 10.167 7.4l17.514 47.6H154.13ZM168 481h-37v-21h37Zm176 0v-21h37v21Zm37-37H131v-57.669a20.16 20.16 0 0 1 7.079-15.451c.092-.078.145.011.234-.072L145.78 364h223.59l5.081 5.26c.112.121.154.153.274.266A20.085 20.085 0 0 1 381 384.173V444Z" fill="#1e84fe" opacity="1" data-original="#000000"></path><path d="M170.487 383h-4.614a23.5 23.5 0 0 0 0 47h4.614a23.5 23.5 0 0 0 0-47Zm0 31h-4.614a7.5 7.5 0 0 1 0-15h4.614a7.5 7.5 0 0 1 0 15ZM346.127 383h-4.614a23.5 23.5 0 0 0 0 47h4.614a23.5 23.5 0 0 0 0-47Zm0 31h-4.614a7.5 7.5 0 0 1 0-15h4.614a7.5 7.5 0 0 1 0 15ZM304 392a8 8 0 0 0-8-8h-81a8 8 0 0 0-8 8v30a8 8 0 0 0 8 8h81a8 8 0 0 0 8-8Zm-15 22h-66v-14h66Z" fill="#1e84fe" opacity="1" data-original="#000000"></path></g></svg>