<svg width="24" height="24" viewBox="0 0 24 24" fill="none" xmlns="http://www.w3.org/2000/svg">
<path d="M21.6307 17.5943L15.6307 8.26125C15.5602 8.15721 15.4656 8.07163 15.3551 8.01172C15.2445 7.95182 15.1212 7.91933 14.9955 7.917C14.8691 7.91776 14.7449 7.95048 14.6345 8.01211C14.524 8.07374 14.431 8.16228 14.364 8.2695L11.031 13.6028C10.9256 13.7714 10.8915 13.9751 10.9362 14.1689C10.9809 14.3627 11.1008 14.5308 11.2695 14.6363C11.4382 14.7417 11.6418 14.7758 11.8356 14.731C12.0295 14.6863 12.1976 14.5664 12.303 14.3978L15.009 10.068L19.6268 17.25H4.353L10.5 7.41525L11.5305 9.0645C11.5827 9.14802 11.6508 9.22044 11.731 9.27763C11.8112 9.33482 11.9019 9.37565 11.9979 9.3978C12.0938 9.41994 12.1932 9.42297 12.2904 9.40671C12.3875 9.39044 12.4805 9.3552 12.564 9.303C12.6475 9.2508 12.7199 9.18266 12.7771 9.10247C12.8343 9.02228 12.8751 8.93162 12.8973 8.83565C12.9194 8.73968 12.9225 8.64029 12.9062 8.54315C12.8899 8.44601 12.8547 8.35302 12.8025 8.2695L11.136 5.6025C11.0686 5.49463 10.9748 5.40568 10.8636 5.34402C10.7523 5.28235 10.6272 5.25 10.5 5.25C10.3728 5.25 10.2477 5.28235 10.1364 5.34402C10.0252 5.40568 9.93142 5.49463 9.864 5.6025L2.364 17.6025C2.29305 17.716 2.25377 17.8465 2.25026 17.9803C2.24674 18.1142 2.27912 18.2465 2.34402 18.3636C2.40892 18.4807 2.50398 18.5783 2.61933 18.6462C2.73468 18.7142 2.86612 18.75 3 18.75H21C21.1347 18.75 21.2669 18.7137 21.3828 18.645C21.4986 18.5762 21.5938 18.4775 21.6583 18.3593C21.7229 18.241 21.7543 18.1076 21.7495 17.973C21.7446 17.8384 21.7036 17.7075 21.6307 17.5943Z" fill="#1D2635"/>
</svg>
