<svg width="24" height="24" viewBox="0 0 24 24" fill="none" xmlns="http://www.w3.org/2000/svg">
<g clip-path="url(#clip0_12909_2268)">
<path d="M21.738 2.26204C18.7219 -0.754037 13.8143 -0.75399 10.7983 2.26204C8.7383 4.32201 8.02298 7.35853 8.91459 10.1128L0.206016 18.8214C0.140703 18.8867 0.0888929 18.9642 0.0535443 19.0496C0.0181958 19.1349 1.25103e-06 19.2263 0 19.3187L0 23.2968C0 23.6852 0.314859 24 0.703219 24H4.68131C4.86787 24 5.04666 23.9259 5.17861 23.794L6.1733 22.7993C6.24829 22.7243 6.30535 22.6333 6.3402 22.5331C6.37505 22.4329 6.38679 22.3262 6.37453 22.2208L6.25041 21.1529L7.73091 21.0133C7.89388 20.9979 8.0464 20.9262 8.16215 20.8105C8.27791 20.6947 8.34966 20.5422 8.36503 20.3792L8.50467 18.8985L9.57272 19.0227C9.67126 19.0341 9.77111 19.0246 9.8657 18.9947C9.9603 18.9648 10.0475 18.9153 10.1216 18.8493C10.1957 18.7833 10.255 18.7024 10.2956 18.6119C10.3362 18.5214 10.3572 18.4233 10.3572 18.3241V17.0145H11.643C11.8281 17.0145 12.0057 16.9416 12.1373 16.8114L13.8845 15.0845C16.6394 15.9775 19.6774 15.2623 21.738 13.2017C24.754 10.1856 24.754 5.27807 21.738 2.26204ZM20.7435 12.2072C18.9685 13.9822 16.306 14.5362 13.9605 13.6188C13.8338 13.5693 13.6955 13.5575 13.5623 13.585C13.4291 13.6125 13.3067 13.678 13.21 13.7736L11.3541 15.6081H9.65391C9.26555 15.6081 8.95069 15.923 8.95069 16.3113V17.5344L7.95319 17.4185C7.86018 17.4077 7.76595 17.4156 7.67603 17.4417C7.58611 17.4678 7.5023 17.5116 7.42952 17.5705C7.35674 17.6294 7.29646 17.7022 7.25221 17.7847C7.20796 17.8673 7.18063 17.9578 7.17183 18.051L7.01934 19.6677L5.40281 19.82C5.30959 19.8288 5.21906 19.8561 5.13653 19.9004C5.054 19.9446 4.98114 20.0049 4.92222 20.0777C4.8633 20.1504 4.81951 20.2343 4.79341 20.3242C4.76731 20.4141 4.75943 20.5084 4.77023 20.6014L4.93814 22.0453L4.38998 22.5936H1.40639V19.6101L10.2234 10.793C10.3201 10.6963 10.3865 10.5736 10.4145 10.4398C10.4425 10.306 10.4309 10.1669 10.3811 10.0396C9.46369 7.69406 10.0178 5.03165 11.7927 3.25663C14.2605 0.788947 18.2757 0.788947 20.7434 3.25663C23.2111 5.72428 23.2111 9.73954 20.7435 12.2072Z" fill="#1D2635"/>
<path d="M19.749 4.25103C18.9265 3.42842 17.588 3.42847 16.7655 4.25103C15.9429 5.0736 15.9429 6.41202 16.7655 7.23458C17.588 8.05714 18.9265 8.05724 19.749 7.23458C20.5716 6.41202 20.5716 5.0736 19.749 4.25103ZM18.7545 6.24008C18.4804 6.51425 18.0342 6.5143 17.76 6.24008C17.4859 5.96591 17.4859 5.5198 17.76 5.24558C18.035 4.97071 18.4797 4.97071 18.7545 5.24558C19.0294 5.52046 19.0294 5.96521 18.7545 6.24008Z" fill="#1D2635"/>
</g>
<defs>
<clipPath id="clip0_12909_2268">
<rect width="24" height="24" fill="white"/>
</clipPath>
</defs>
</svg>
