<svg xmlns="http://www.w3.org/2000/svg" version="1.1" xmlns:xlink="http://www.w3.org/1999/xlink" width="32" height="32" x="0" y="0" viewBox="0 0 512 512" style="enable-background:new 0 0 512 512" xml:space="preserve"><g><path d="M491 431.84h-62.71v-20.18h14.94c16.62 0 30.15-13.52 30.15-30.15v-53.68c0-14.57-10.39-26.76-24.15-29.55v-25.24c0-16.87-13.73-30.6-30.6-30.6H244.98c-16.87 0-30.6 13.73-30.6 30.6v25.24c-4.49.91-8.62 2.82-12.15 5.49V146.31h15.13v42.56c0 3.31 2.69 6 6 6s6-2.69 6-6v-42.56h15.87c1.82 0 3.55-.83 4.69-2.25s1.57-3.29 1.17-5.07l-19.99-88.7a6 6 0 0 0-5.85-4.68h-58.04c-2.81 0-5.24 1.94-5.85 4.68L141.37 139a6.01 6.01 0 0 0 1.17 5.07 6.01 6.01 0 0 0 4.69 2.25h43.01V381.52c0 16.62 13.52 30.15 30.15 30.15h14.94v20.18h-59.06V319.33c0-3.31-2.69-6-6-6H133.4l18.36-44.58c.76-1.85.55-3.96-.56-5.62s-2.98-2.66-4.99-2.66h-1.37c2.64-1.96 5.13-4.14 7.43-6.58 11.43-12.11 16.85-28.55 14.89-45.11a5.996 5.996 0 0 0-5.6-5.28c-11.47-.69-22.62 2.08-32.23 7.88-3.02-10.77-9.24-20.49-18.04-27.85a6.01 6.01 0 0 0-7.7 0c-8.8 7.36-15.02 17.08-18.04 27.85-9.62-5.79-20.76-8.57-32.23-7.88-2.9.17-5.26 2.4-5.6 5.28-1.96 16.55 3.46 33 14.89 45.11 2.3 2.43 4.79 4.62 7.43 6.58h-1.37c-2 0-3.87 1-4.99 2.66s-1.32 3.77-.56 5.62l18.36 44.58H44.62c-3.31 0-6 2.69-6 6v112.51H21c-3.31 0-6 2.69-6 6v22.54c0 3.31 2.69 6 6 6h470c3.31 0 6-2.69 6-6v-22.54c0-3.31-2.69-6-6-6zM172.01 57.62h48.44l17.28 76.7h-83.01zm244.28 374.22h-8.75l-14.73-20.18h23.49v20.18zm-38.34-20.18 14.73 20.18H270.93l14.73-20.18zm-132.97-157.2h173.66c10.25 0 18.6 8.34 18.6 18.6v25.24c-13.76 2.79-24.15 14.98-24.15 29.55v23.53H250.53v-23.53c0-14.57-10.39-26.76-24.15-29.55v-25.24c0-10.26 8.34-18.6 18.6-18.6zm-42.75 127.06v-53.68c0-10.01 8.14-18.15 18.15-18.15s18.15 8.14 18.15 18.15v29.53c0 3.31 2.69 6 6 6h174.56c3.31 0 6-2.69 6-6v-29.53c0-10.01 8.14-18.15 18.15-18.15s18.15 8.14 18.15 18.15v53.68c0 10.01-8.14 18.15-18.15 18.15H220.38c-10.01-.01-18.15-8.15-18.15-18.15zm45.09 30.14h23.49l-14.73 20.18h-8.75v-20.18zm-91.77-196.19a43.994 43.994 0 0 1-12.01 30.19c-6 6.36-13.66 10.7-21.97 12.65a55.93 55.93 0 0 0 9.85-31.75c0-.69-.03-1.38-.06-2.06 7.01-5.4 15.38-8.52 24.19-9.03zm-48.11-19.11a43.974 43.974 0 0 1 11.97 30.2c0 11.31-4.31 22.06-11.97 30.2-7.66-8.14-11.97-18.88-11.97-30.2s4.31-22.06 11.97-30.2zm-48.11 19.11c8.81.51 17.19 3.63 24.19 9.03-.03.69-.06 1.37-.06 2.06 0 11.49 3.49 22.51 9.85 31.75a43.972 43.972 0 0 1-21.98-12.66c-7.75-8.23-11.99-19-12-30.18zm18.31 57h59.61l-16.83 40.87H94.47zm86.63 52.86v59.87H50.62v-59.87zM50.62 397.2h113.65v34.64H50.62zM485 454.38H27v-10.54h458zM85.02 355.27c0-3.31 2.69-6 6-6h32.84c3.31 0 6 2.69 6 6s-2.69 6-6 6H91.02c-3.31 0-6-2.69-6-6z" fill="#1e84fe" opacity="1" data-original="#000000"></path></g></svg>