<svg xmlns="http://www.w3.org/2000/svg" width="20" height="21"
                                                    viewBox="0 0 20 21" fill="none">
                                                    <path
                                                        d="M9.96402 19.6811L9.43108 19.2242C8.69638 18.6091 2.28125 13.0687 2.28125 9.01608C2.28125 4.77301 5.72095 1.33331 9.96402 1.33331C14.2071 1.33331 17.6468 4.77301 17.6468 9.01608C17.6468 13.0687 11.2317 18.6091 10.5 19.2273L9.96402 19.6811ZM9.96402 2.99455C6.64 2.99831 3.94629 5.69203 3.94252 9.01605C3.94252 11.562 7.88936 15.6291 9.96402 17.4906C12.0387 15.6284 15.9855 11.5589 15.9855 9.01605C15.9817 5.69203 13.2881 2.99835 9.96402 2.99455Z"
                                                        fill="#798090" />
                                                    <path
                                                        d="M9.96335 12.0615C8.28144 12.0615 6.91797 10.698 6.91797 9.01609C6.91797 7.33417 8.28144 5.9707 9.96335 5.9707C11.6453 5.9707 13.0087 7.33417 13.0087 9.01609C13.0087 10.698 11.6453 12.0615 9.96335 12.0615ZM9.96335 7.49336C9.12239 7.49336 8.44066 8.17509 8.44066 9.01605C8.44066 9.85701 9.12239 10.5387 9.96335 10.5387C10.8043 10.5387 11.486 9.85701 11.486 9.01605C11.486 8.17509 10.8043 7.49336 9.96335 7.49336Z"
                                                        fill="#798090" />
                                                </svg>