<svg xmlns="http://www.w3.org/2000/svg" width="20" height="20"
                                                        viewBox="0 0 20 20" fill="none">
                                                        <path fill-rule="evenodd" clip-rule="evenodd"
                                                            d="M9.9999 17.0741L14.2425 19.3574C14.4762 19.4832 14.7423 19.5273 15.0018 19.4831C15.6702 19.3692 16.1236 18.7111 16.0145 18.0132L15.2457 13.0947L18.6365 9.5873C18.8234 9.39412 18.9457 9.14338 18.9856 8.87209C19.0884 8.17316 18.6292 7.51957 17.9598 7.41222L13.2421 6.65573L11.0952 2.20471C10.9768 1.95957 10.7863 1.76058 10.5515 1.63711C9.94663 1.31905 9.20935 1.57317 8.90474 2.20471L6.75781 6.65573L2.04009 7.41222C1.78026 7.45389 1.54012 7.58165 1.3551 7.77664C0.878471 8.279 0.882117 9.08966 1.36324 9.5873L4.75409 13.0947L3.9853 18.0132C3.94295 18.2841 3.98512 18.5621 4.10555 18.806C4.41584 19.4346 5.15538 19.6814 5.75734 19.3574L9.9999 17.0741Z"
                                                            fill="#FF8C32" />
                                                    </svg>