<svg xmlns="http://www.w3.org/2000/svg" width="20" height="21"
                                                        viewBox="0 0 20 21" fill="none">
                                                        <path fill-rule="evenodd" clip-rule="evenodd"
                                                            d="M1.25 4.77502V1.27502H4.75V4.77502H1.25ZM0 0.858358C0 0.39812 0.373096 0.0250244 0.833333 0.0250244H5.16667C5.6269 0.0250244 6 0.39812 6 0.858358V5.19169C6 5.65192 5.6269 6.02502 5.16667 6.02502H3.625V14.025H5.16667C5.6269 14.025 6 14.3981 6 14.8584V19.1917C6 19.6519 5.6269 20.025 5.16667 20.025H0.833333C0.373096 20.025 0 19.6519 0 19.1917V14.8584C0 14.3981 0.373096 14.025 0.833333 14.025H2.375V6.02502H0.833333C0.373096 6.02502 0 5.65192 0 5.19169V0.858358ZM15.25 1.27502H18.75V4.77502H15.25V1.27502ZM14 0.858358C14 0.39812 14.3731 0.0250244 14.8333 0.0250244H19.1667C19.6269 0.0250244 20 0.39812 20 0.858358V5.19169C20 5.65192 19.6269 6.02502 19.1667 6.02502H17.625V14.025H19.1667C19.6269 14.025 20 14.3981 20 14.8584V19.1917C20 19.6519 19.6269 20.025 19.1667 20.025H14.8333C14.3731 20.025 14 19.6519 14 19.1917V17.65H6V16.4H14V14.8584C14 14.3981 14.3731 14.025 14.8333 14.025H16.375V6.02502H14.8333C14.3731 6.02502 14 5.65192 14 5.19169V3.65002H6V2.40002H14V0.858358ZM18.75 15.275H15.25V18.775H18.75V15.275ZM1.25 18.775V15.275H4.75V18.775H1.25Z"
                                                            fill="#1E84FE" />
                                                    </svg>