<svg width="32" height="32" viewBox="0 0 32 32" fill="none" xmlns="http://www.w3.org/2000/svg">
<path d="M16.213 14.4935C16.0797 14.4801 15.9197 14.4801 15.773 14.4935C12.5997 14.3868 10.0797 11.7868 10.0797 8.58681C10.0797 5.32014 12.7197 2.66681 15.9997 2.66681C19.2664 2.66681 21.9197 5.32014 21.9197 8.58681C21.9064 11.7868 19.3864 14.3868 16.213 14.4935Z" stroke="#798090" stroke-width="2" stroke-linecap="round" stroke-linejoin="round"/>
<path d="M9.54726 19.413C6.32059 21.573 6.32059 25.093 9.54726 27.2397C13.2139 29.693 19.2273 29.693 22.8939 27.2397C26.1206 25.0797 26.1206 21.5597 22.8939 19.413C19.2406 16.973 13.2273 16.973 9.54726 19.413Z" stroke="#798090" stroke-width="2" stroke-linecap="round" stroke-linejoin="round"/>
</svg>
