<svg width="20" height="21" viewBox="0 0 20 21" fill="none" xmlns="http://www.w3.org/2000/svg">
<path d="M17.5 18L12.5 13M2.5 8.83333C2.5 9.59938 2.65088 10.3579 2.94404 11.0657C3.23719 11.7734 3.66687 12.4164 4.20854 12.9581C4.75022 13.4998 5.39328 13.9295 6.10101 14.2226C6.80875 14.5158 7.56729 14.6667 8.33333 14.6667C9.09938 14.6667 9.85792 14.5158 10.5657 14.2226C11.2734 13.9295 11.9164 13.4998 12.4581 12.9581C12.9998 12.4164 13.4295 11.7734 13.7226 11.0657C14.0158 10.3579 14.1667 9.59938 14.1667 8.83333C14.1667 8.06729 14.0158 7.30875 13.7226 6.60101C13.4295 5.89328 12.9998 5.25022 12.4581 4.70854C11.9164 4.16687 11.2734 3.73719 10.5657 3.44404C9.85792 3.15088 9.09938 3 8.33333 3C7.56729 3 6.80875 3.15088 6.10101 3.44404C5.39328 3.73719 4.75022 4.16687 4.20854 4.70854C3.66687 5.25022 3.23719 5.89328 2.94404 6.60101C2.65088 7.30875 2.5 8.06729 2.5 8.83333Z" stroke="#1D2635" stroke-width="2" stroke-linecap="round" stroke-linejoin="round"/>
</svg>
