<svg
                          xmlns="http://www.w3.org/2000/svg"
                          width="16"
                          height="17"
                          viewBox="0 0 16 17"
                          fill="none"
                      >
                        <path
                            d="M5.49615 5.39328L1.24282 6.00995L1.16749 6.02528C1.05345 6.05556 0.949484 6.11555 0.866215 6.19915C0.782947 6.28274 0.723356 6.38694 0.693529 6.5011C0.663701 6.61526 0.664705 6.73529 0.696439 6.84893C0.728172 6.96257 0.789498 7.06576 0.874154 7.14795L3.95549 10.1473L3.22882 14.3839L3.22015 14.4573C3.21317 14.5752 3.23766 14.6929 3.29112 14.7983C3.34458 14.9037 3.42508 14.9929 3.52438 15.057C3.62368 15.121 3.73821 15.1575 3.85625 15.1627C3.97429 15.1679 4.0916 15.1416 4.19615 15.0866L8.00015 13.0866L11.7955 15.0866L11.8622 15.1173C11.9722 15.1606 12.0918 15.1739 12.2087 15.1558C12.3255 15.1377 12.4355 15.0888 12.5272 15.0141C12.619 14.9395 12.6892 14.8418 12.7307 14.731C12.7722 14.6203 12.7835 14.5005 12.7635 14.3839L12.0362 10.1473L15.1188 7.14728L15.1708 7.09062C15.2451 6.99913 15.2938 6.88958 15.312 6.77315C15.3301 6.65671 15.3171 6.53753 15.2742 6.42777C15.2313 6.318 15.1601 6.22157 15.0678 6.14829C14.9755 6.07501 14.8654 6.02751 14.7488 6.01062L10.4955 5.39328L8.59415 1.53995C8.53914 1.4283 8.45397 1.33429 8.34828 1.26855C8.2426 1.20281 8.12062 1.16797 7.99615 1.16797C7.87169 1.16797 7.74971 1.20281 7.64403 1.26855C7.53834 1.33429 7.45317 1.4283 7.39815 1.53995L5.49615 5.39328Z"
                            fill="#DFE0E4"
                        />
                      </svg>