<svg width="24" height="24" viewBox="0 0 24 24" fill="none" xmlns="http://www.w3.org/2000/svg">
<path d="M20.7244 11.3177C19.7855 11.3177 18.938 10.6643 18.7312 9.70993C18.6159 9.17743 18.7144 8.63181 19.0097 8.17337C19.305 7.71493 19.7601 7.399 20.2926 7.28369C21.1669 7.09431 21.7242 6.22853 21.5348 5.35384C21.345 4.47962 20.4792 3.92228 19.605 4.11212C19.1812 4.204 18.8189 4.45525 18.5845 4.81994C18.3501 5.18462 18.2714 5.61822 18.3633 6.04197C18.4317 6.35837 18.2311 6.67009 17.9147 6.739C17.5983 6.80743 17.2865 6.60681 17.2176 6.2904C17.0592 5.56103 17.1947 4.81337 17.5987 4.18572C18.0028 3.55806 18.6272 3.1254 19.3565 2.96697C20.0859 2.80853 20.8336 2.944 21.4612 3.34806C22.0889 3.75212 22.5215 4.37603 22.68 5.10587C23.0067 6.61197 22.0472 8.10259 20.5411 8.42931C20.3147 8.47853 20.1206 8.61306 19.995 8.80806C19.8694 9.00306 19.8276 9.23509 19.8764 9.46197C19.9781 9.92978 20.4408 10.2279 20.9086 10.1262C21.2245 10.0577 21.5367 10.2584 21.6051 10.5748C21.6736 10.8912 21.4729 11.2029 21.1565 11.2718C21.0117 11.3032 20.8664 11.3182 20.7239 11.3182L20.7244 11.3177Z" fill="url(#paint0_linear_12909_2258)"/>
<path d="M3.27515 11.3177C3.13218 11.3177 2.98781 11.3027 2.84249 11.2713C2.52609 11.2029 2.32546 10.8907 2.3939 10.5743C2.46234 10.2579 2.77406 10.0573 3.09046 10.1257C3.55828 10.2274 4.0214 9.92929 4.12265 9.46148C4.17187 9.23507 4.12968 9.00257 4.00406 8.80757C3.87843 8.61257 3.68484 8.47804 3.45796 8.42882C1.95234 8.1021 0.992807 6.61148 1.31906 5.10538C1.47703 4.37601 1.91015 3.75163 2.53781 3.34757C3.16546 2.94351 3.91265 2.80804 4.64249 2.96648C5.37187 3.12445 5.99624 3.55757 6.40031 4.18523C6.80437 4.81288 6.93937 5.56054 6.7814 6.28992C6.71296 6.60632 6.40124 6.80695 6.08437 6.73851C5.76796 6.67007 5.56734 6.35788 5.63578 6.04148C5.72765 5.61773 5.6489 5.18413 5.41453 4.81945C5.18015 4.45523 4.81734 4.20351 4.39406 4.11163C3.51984 3.92179 2.65406 4.47913 2.46421 5.35335C2.27484 6.22757 2.83171 7.09335 3.7064 7.2832C4.2389 7.39851 4.69453 7.71445 4.98937 8.17288C5.28421 8.63132 5.38312 9.17695 5.26781 9.70945C5.06109 10.6638 4.21359 11.3173 3.27468 11.3173L3.27515 11.3177Z" fill="url(#paint1_linear_12909_2258)"/>
<path d="M12.0004 20.2028C13.2153 20.2028 14.2002 18.7159 14.2002 16.8817C14.2002 15.0475 13.2153 13.5606 12.0004 13.5606C10.7854 13.5606 9.80054 15.0475 9.80054 16.8817C9.80054 18.7159 10.7854 20.2028 12.0004 20.2028Z" fill="url(#paint2_linear_12909_2258)"/>
<path d="M14.0279 17.5839H9.97037C8.7835 17.5839 7.81787 18.5495 7.81787 19.7364V20.2136C7.81787 20.537 8.08037 20.7995 8.40381 20.7995H15.594C15.9174 20.7995 16.1799 20.537 16.1799 20.2136V19.7364C16.1799 18.5495 15.2143 17.5839 14.0274 17.5839H14.0279Z" fill="url(#paint3_linear_12909_2258)"/>
<path d="M18.2609 1.81036C18.074 1.60518 17.8464 1.44122 17.5926 1.32895C17.3387 1.21668 17.0643 1.15857 16.7867 1.15833H7.21203C6.65188 1.15833 6.11469 1.39598 5.73782 1.81036C5.36094 2.22473 5.17532 2.78254 5.22875 3.33989L5.92907 10.6622C6.07391 12.1754 6.77282 13.5718 7.89782 14.5941C9.02282 15.6165 10.4792 16.1794 11.9994 16.1794C13.5195 16.1794 14.9759 15.6165 16.1009 14.5941C17.2259 13.5718 17.9248 12.1754 18.0697 10.6622L18.77 3.33989C18.7962 3.06355 18.7645 2.78478 18.6769 2.52141C18.5892 2.25803 18.4475 2.01585 18.2609 1.81036Z" fill="url(#paint4_linear_12909_2258)"/>
<path d="M15.8562 19.6271H8.14248C7.25607 19.6271 6.53467 20.348 6.53467 21.2349C6.53467 22.1218 7.25561 22.8427 8.14248 22.8427H15.8562C16.7426 22.8427 17.464 22.1218 17.464 21.2349C17.464 20.348 16.7431 19.6271 15.8562 19.6271Z" fill="url(#paint5_linear_12909_2258)"/>
<path d="M14.4714 7.78114L15.2219 6.50989C15.3292 6.32802 15.3306 6.10208 15.2247 5.91927C15.1188 5.73646 14.9233 5.62255 14.7114 5.6263L13.2353 5.64083L12.5097 4.35552C12.4056 4.1713 12.2106 4.05786 11.9992 4.05786C11.7878 4.05786 11.5928 4.17177 11.4888 4.35552L10.7631 5.64083L9.28705 5.6263H9.28143C9.07237 5.6263 8.87877 5.73786 8.77377 5.91927C8.6683 6.10208 8.66924 6.32802 8.77659 6.50989L9.52705 7.78114L8.77659 9.05239C8.66924 9.23427 8.66783 9.46021 8.77377 9.64302C8.87924 9.82583 9.07424 9.9388 9.28705 9.93599L10.7631 9.92146L11.4888 11.2068C11.5928 11.391 11.7878 11.5044 11.9992 11.5044C12.2106 11.5044 12.4056 11.3905 12.5097 11.2068L13.2353 9.92146L14.7114 9.93599H14.7171C14.9261 9.93599 15.1197 9.82442 15.2247 9.64302C15.3302 9.46021 15.3292 9.23427 15.2219 9.05239L14.4714 7.78114Z" fill="url(#paint6_linear_12909_2258)"/>
<defs>
<linearGradient id="paint0_linear_12909_2258" x1="19.9481" y1="3.55619" x2="19.9481" y2="8.76681" gradientUnits="userSpaceOnUse">
<stop stop-color="#FF9500"/>
<stop offset="1" stop-color="#FFCC1E"/>
</linearGradient>
<linearGradient id="paint1_linear_12909_2258" x1="4.0514" y1="3.55617" x2="4.0514" y2="8.76679" gradientUnits="userSpaceOnUse">
<stop stop-color="#FF9500"/>
<stop offset="1" stop-color="#FFCC1E"/>
</linearGradient>
<linearGradient id="paint2_linear_12909_2258" x1="12.0004" y1="15.9686" x2="12.0004" y2="18.288" gradientUnits="userSpaceOnUse">
<stop stop-color="#FF9500"/>
<stop offset="1" stop-color="#FFCC1E"/>
</linearGradient>
<linearGradient id="paint3_linear_12909_2258" x1="11.9991" y1="19.7439" x2="11.9991" y2="18.0362" gradientUnits="userSpaceOnUse">
<stop stop-color="#FF9500"/>
<stop offset="1" stop-color="#FFCC1E"/>
</linearGradient>
<linearGradient id="paint4_linear_12909_2258" x1="11.9994" y1="16.1499" x2="11.9994" y2="2.01426" gradientUnits="userSpaceOnUse">
<stop stop-color="#FFBD00"/>
<stop offset="1" stop-color="#FFF065"/>
</linearGradient>
<linearGradient id="paint5_linear_12909_2258" x1="11.9994" y1="22.7752" x2="11.9994" y2="20.363" gradientUnits="userSpaceOnUse">
<stop stop-color="#333333"/>
<stop offset="1" stop-color="#666666"/>
</linearGradient>
<linearGradient id="paint6_linear_12909_2258" x1="11.9997" y1="11.3929" x2="11.9997" y2="5.13974" gradientUnits="userSpaceOnUse">
<stop stop-color="#FF9500"/>
<stop offset="1" stop-color="#FFCC1E"/>
</linearGradient>
</defs>
</svg>
