<svg xmlns="http://www.w3.org/2000/svg" width="20" height="20"
                                                        viewBox="0 0 20 20" fill="none">
                                                        <path
                                                            d="M18.75 9.16665H18.3333V2.5C18.3333 1.58081 17.5858 0.833313 16.6667 0.833313C15.7474 0.833313 15 1.58077 15 2.49917L14.9992 2.91667C14.9987 3.14699 15.1847 3.33375 15.415 3.33417C15.6453 3.33417 15.8321 3.14824 15.8325 2.91831L15.8333 2.50003C15.8333 2.04065 16.2072 1.66671 16.6667 1.66671C17.126 1.66671 17.5 2.04058 17.5 2.5V9.16665H1.25C0.560703 9.16665 0 9.7274 0 10.4166C0 10.9591 0.349375 11.4173 0.83332 11.5899V12.9166C0.83332 14.8292 1.83231 16.5096 3.33332 17.4737V19.5833C3.33332 19.8136 3.51969 20 3.75 20H4.58332C4.74121 20 4.88523 19.9109 4.95606 19.7696L5.68902 18.3041C5.87352 18.3231 6.06058 18.3333 6.25 18.3333H13.75C13.9394 18.3333 14.1265 18.3231 14.311 18.3041L15.0439 19.7696C15.1147 19.9109 15.2587 20 15.4167 20H16.25C16.4803 20 16.6667 19.8136 16.6667 19.5833V17.4736C18.1677 16.5096 19.1667 14.8291 19.1667 12.9166V11.5899C19.6506 11.4173 20 10.9591 20 10.4166C20 9.7274 19.4393 9.16665 18.75 9.16665ZM5 9.99998H9.16667V14.0914L5 13.3972V9.99998ZM0.83332 10.4166C0.83332 10.1867 1.02012 9.99998 1.25 9.99998H4.16668V10.8333H1.25C1.02012 10.8333 0.83332 10.6466 0.83332 10.4166ZM4.32578 19.1666H4.16668V17.9154C4.38344 18.0061 4.60914 18.0781 4.83903 18.1404L4.32578 19.1666ZM15.8333 19.1666H15.6742L15.161 18.1404C15.3908 18.0782 15.6166 18.0061 15.8333 17.9154V19.1666ZM18.3333 12.9166C18.3333 15.4439 16.2773 17.5 13.75 17.5H6.25C3.72273 17.5 1.66668 15.4439 1.66668 12.9166V11.6666H4.16668V13.75C4.16668 13.9538 4.31398 14.1276 4.515 14.161L9.515 14.9943C9.53775 14.998 9.56058 15 9.58333 15C9.68142 15 9.777 14.9654 9.85275 14.9011C9.94633 14.8221 10 14.7058 10 14.5833V11.6666H18.3333V12.9166ZM18.75 10.8333H10V9.99998H18.75C18.9799 9.99998 19.1667 10.1867 19.1667 10.4166C19.1667 10.6466 18.9799 10.8333 18.75 10.8333Z"
                                                            fill="#1E84FE" />
                                                    </svg>