<svg xmlns="http://www.w3.org/2000/svg" version="1.1" xmlns:xlink="http://www.w3.org/1999/xlink" width="32" height="32" x="0" y="0" viewBox="0 0 512 512" style="enable-background:new 0 0 512 512" xml:space="preserve" class=""><g><path d="M496 444.759h-11.411V317.68H496a7 7 0 1 0 0-14h-85.275V162.608c0-41.165-16.139-79.976-45.445-109.281-29.305-29.305-68.115-45.444-109.281-45.444s-79.976 16.14-109.281 45.444c-29.306 29.306-45.445 68.116-45.445 109.281V303.68H16a7 7 0 1 0 0 14h11.41v127.079H16a7 7 0 0 0-7 7v45.358a7 7 0 0 0 7 7h480a7 7 0 0 0 7-7v-45.358a7 7 0 0 0-7-7zm-25.411 0h-59.865V317.68h59.865zM175.136 317.68v127.079h-59.863V317.68zm14 0H249v127.079h-59.864zM263 444.759V317.68h59.862v127.079zm73.862-127.079h59.863v127.079h-59.863zm-73.862-14V169.609h133.725V303.68zm97.286-235.46c21.168 23.366 34.613 53.852 36.264 87.388H272.898zm-97.287 77.489V22.058c33.536 1.651 64.021 15.095 87.388 36.264zm-14 0-87.388-87.388c23.367-21.168 53.852-34.613 87.388-36.264zM151.712 68.22l87.388 87.388H115.448c1.651-33.536 15.095-64.021 36.264-87.388zm-36.439 101.388H249v134.071H115.273zM41.41 317.68h59.863v127.079H41.41zM489 490.117H23v-31.358h466z" fill="#1e84fe" opacity="1" data-original="#000000" class=""></path></g></svg>